<svg width="96" height="27" viewBox="0 0 96 27" fill="none" xmlns="http://www.w3.org/2000/svg">
<g style="mix-blend-mode:luminosity">
<path d="M48.1771 0.323242H59.9045C62.7073 0.323242 65.1782 0.858303 67.3171 1.92842C69.4807 2.97422 71.1525 4.4578 72.3326 6.37915C73.5373 8.3005 74.1397 10.538 74.1397 13.0917C74.1397 15.6454 73.5373 17.8829 72.3326 19.8043C71.1525 21.7257 69.4807 23.2214 67.3171 24.2915C65.1782 25.3373 62.7073 25.8602 59.9045 25.8602H48.1771V0.323242ZM59.6095 21.0082C62.191 21.0082 64.2439 20.3029 65.7682 18.8923C67.3171 17.4573 68.0916 15.5238 68.0916 13.0917C68.0916 10.6596 67.3171 8.73828 65.7682 7.32767C64.2439 5.89273 62.191 5.17527 59.6095 5.17527H54.1515V21.0082H59.6095Z" fill="#ACB5BD"/>
<path fill-rule="evenodd" clip-rule="evenodd" d="M70.5786 25.8602H81.3806C84.7108 25.8602 87.2389 25.2643 88.9648 24.0726C90.715 22.8566 91.59 21.1298 91.59 18.8923C91.59 17.3114 91.1768 15.9859 90.3503 14.9158C89.5238 13.8214 88.3814 13.0431 86.9229 12.581C87.9924 12.0216 88.8189 11.2555 89.4023 10.2827C90.01 9.30982 90.3139 8.20322 90.3139 6.96285C90.3139 4.9199 89.4752 3.30255 87.798 2.11083C86.145 0.919105 83.7628 0.323242 80.6513 0.323242L70.5486 0.323242C72.301 1.48861 73.7537 2.97223 74.8673 4.77397H79.9221C81.3806 4.77397 82.4866 5.02934 83.2401 5.54008C83.9937 6.0265 84.3705 6.76829 84.3705 7.76544C84.3705 8.7626 83.9937 9.51655 83.2401 10.0273C82.4866 10.538 81.3806 10.7934 79.9221 10.7934H76.9945C77.0918 11.5424 77.1397 12.3092 77.1397 13.0917C77.1397 13.773 77.1034 14.4422 77.0298 15.0982H80.943C84.0788 15.0982 85.6467 16.1562 85.6467 18.2721C85.6467 19.3422 85.2456 20.1326 84.4434 20.6434C83.6655 21.1541 82.4987 21.4095 80.943 21.4095H74.8673C73.7596 23.2018 72.317 24.685 70.5786 25.8602ZM68.1812 23.8263V2.38434C69.9308 3.39021 71.3147 4.72181 72.3326 6.37915C73.5373 8.3005 74.1397 10.538 74.1397 13.0917C74.1397 15.6454 73.5373 17.8829 72.3326 19.8043C71.3147 21.4616 69.9308 22.8023 68.1812 23.8263Z" fill="#ACB5BD"/>
<path d="M37.9862 13.0723H43.4034V23.4675C42.0125 24.5168 40.402 25.3221 38.5718 25.8833C36.7417 26.4446 34.8993 26.7252 33.0448 26.7252C30.385 26.7252 27.9936 26.1639 25.8706 25.0414C23.7476 23.8945 22.0761 22.3206 20.856 20.3197C19.6603 18.2943 19.0624 16.0127 19.0624 13.4749C19.0624 10.9371 19.6603 8.6677 20.856 6.66674C22.0761 4.64137 23.7598 3.06744 25.9072 1.94495C28.0546 0.798056 30.4704 0.224609 33.1546 0.224609C35.3996 0.224609 37.4371 0.60284 39.2673 1.3593C41.0974 2.11576 42.6348 3.21385 43.8793 4.65357L40.0726 8.16746C38.2424 6.2397 36.034 5.27582 33.4474 5.27582C31.8125 5.27582 30.3606 5.61745 29.0917 6.30071C27.8228 6.98396 26.8345 7.94784 26.1268 9.19234C25.4192 10.4368 25.0653 11.8644 25.0653 13.4749C25.0653 15.061 25.4192 16.4763 26.1268 17.7208C26.8345 18.9653 27.8106 19.9414 29.0551 20.6491C30.324 21.3323 31.7637 21.674 33.3742 21.674C35.0823 21.674 36.6197 21.3079 37.9862 20.5759V13.0723Z" fill="#D40000"/>
<path fill-rule="evenodd" clip-rule="evenodd" d="M21.0615 20.6461C21.2224 20.0485 21.3029 19.4272 21.3029 18.7823C21.3029 17.0742 20.8515 15.7199 19.9486 14.7194C19.6728 14.4052 19.3789 14.1176 19.067 13.8564C19.1242 16.2418 19.7205 18.3963 20.856 20.3197C20.9231 20.4297 20.9916 20.5385 21.0615 20.6461ZM17.5306 6.54599C15.445 5.504 13.3593 4.983 11.2737 4.983C9.61438 4.983 8.38208 5.25142 7.57682 5.78826C6.79596 6.32511 6.40552 7.03276 6.40552 7.91124C6.40552 8.78971 6.85696 9.44856 7.75983 9.8878C8.68711 10.3026 10.0902 10.7175 11.9692 11.1323C13.5901 11.5173 14.9671 11.9023 16.1002 12.2872C16.075 12.6792 16.0624 13.0751 16.0624 13.4749C16.0624 16.5053 16.7827 19.3211 18.2726 21.8448L18.2835 21.8632L18.2946 21.8815C18.6542 22.4711 19.0459 23.0307 19.4691 23.5597C18.6984 24.4098 17.6747 25.1111 16.3981 25.6637C14.7632 26.3713 12.7744 26.7252 10.4319 26.7252C8.40649 26.7252 6.44213 26.4568 4.53877 25.9199C2.65982 25.3587 1.14689 24.6388 0 23.7603L2.01316 19.2948C3.11125 20.1 4.41676 20.7467 5.92968 21.2347C7.44261 21.7228 8.95553 21.9668 10.4685 21.9668C12.1522 21.9668 13.3967 21.7228 14.202 21.2347C15.0072 20.7223 15.4099 20.0512 15.4099 19.2216C15.4099 18.6115 15.1658 18.1113 14.6778 17.7208C14.2142 17.306 13.6041 16.9766 12.8476 16.7326C12.1156 16.4885 11.1151 16.2201 9.8462 15.9273C7.89404 15.4637 6.29571 15 5.05121 14.5364C3.80671 14.0727 2.73302 13.3285 1.83015 12.3036C0.951678 11.2787 0.512442 9.9122 0.512442 8.20406C0.512442 6.71554 0.915075 5.37343 1.72034 4.17773C2.52561 2.95763 3.7335 1.99375 5.34404 1.2861C6.97897 0.578438 8.96773 0.224609 11.3103 0.224609C12.9453 0.224609 14.5436 0.419825 16.1053 0.810256C17.667 1.20069 19.0336 1.76193 20.2048 2.49399L20.1569 2.61191C19.4584 3.37367 18.8338 4.20967 18.2862 5.1187L18.2807 5.12787C18.0043 5.59044 17.7544 6.06332 17.5306 6.54599Z" fill="#D40000"/>
</g>
</svg>
