<svg width="52" height="52" viewBox="0 0 52 52" fill="none" xmlns="http://www.w3.org/2000/svg">
<path fill-rule="evenodd" clip-rule="evenodd" d="M16.3846 16.3847H18.5214V19.5898H16.3846V16.3847ZM13.1795 29.2052H15.3162V32.4103H13.1795V29.2052ZM21.7265 16.3847H19.5897V19.5898H21.7265V16.3847ZM22.7949 16.3847H24.9316V19.5898H22.7949V16.3847ZM28.1367 16.3847H26V19.5898H28.1367V16.3847ZM29.2051 16.3847H31.3419V19.5898H29.2051V16.3847ZM34.547 16.3847H32.4103V19.5898H34.547V16.3847ZM16.3846 20.6582H18.5214V23.8633H16.3846V20.6582ZM21.7265 20.6582H19.5897V23.8633H21.7265V20.6582ZM22.7949 20.6582H24.9316V23.8633H22.7949V20.6582ZM28.1367 20.6582H26V23.8633H28.1367V20.6582ZM29.2051 20.6582H31.3419V23.8633H29.2051V20.6582ZM34.547 20.6582H32.4103V23.8633H34.547V20.6582ZM16.3846 29.2052H18.5214V32.4103H16.3846V29.2052ZM21.7265 29.2052H19.5897V32.4103H21.7265V29.2052ZM22.7949 29.2052H24.9316V32.4103H22.7949V29.2052ZM28.1367 29.2052H26V32.4103H28.1367V29.2052ZM29.2051 29.2052H31.3419V32.4103H29.2051V29.2052ZM34.547 29.2052H32.4103V32.4103H34.547V29.2052ZM35.6154 29.2052H37.7521V32.4103H35.6154V29.2052ZM15.3162 33.4787H13.1795V36.6838H15.3162V33.4787ZM16.3846 33.4787H18.5214V36.6838H16.3846V33.4787ZM21.7265 33.4787H19.5897V36.6838H21.7265V33.4787ZM22.7949 33.4787H24.9316V36.6838H22.7949V33.4787ZM28.1367 33.4787H26V36.6838H28.1367V33.4787ZM29.2051 33.4787H31.3419V36.6838H29.2051V33.4787ZM34.547 33.4787H32.4103V36.6838H34.547V33.4787ZM35.6154 33.4787H37.7521V36.6838H35.6154V33.4787ZM15.3162 37.7521H13.1795V40.9572H15.3162V37.7521ZM16.3846 37.7521H18.5214V40.9572H16.3846V37.7521ZM21.7265 37.7521H19.5897V40.9572H21.7265V37.7521ZM22.7949 37.7521H24.9316V40.9572H22.7949V37.7521ZM28.1367 37.7521H26V40.9572H28.1367V37.7521ZM29.2051 37.7521H31.3419V40.9572H29.2051V37.7521ZM34.547 37.7521H32.4103V40.9572H34.547V37.7521ZM35.6154 37.7521H37.7521V40.9572H35.6154V37.7521Z" fill="url(#paint0_linear)"/>
<path fill-rule="evenodd" clip-rule="evenodd" d="M25.4618 5.05981L25.4658 5.05983L25.4699 5.05981C29.3163 5.0616 32.5841 7.58593 33.7051 11.0649C33.6395 11.0238 33.5618 11 33.4786 11H26C25.764 11 25.5726 11.1913 25.5726 11.4274C25.5726 11.6634 25.764 11.8547 26 11.8547H33.4786C33.6471 11.8547 33.7929 11.7571 33.8624 11.6154C34.0304 12.2875 34.1196 12.9903 34.1196 13.7137C34.1196 13.7486 34.1193 13.7842 34.1188 13.8205H16.8128C16.8121 13.7843 16.8119 13.7487 16.8119 13.7137C16.8119 12.0212 17.3003 10.4407 18.1434 9.10566C18.2151 9.24109 18.3575 9.33337 18.5214 9.33337H22.7949C23.0309 9.33337 23.2222 9.14202 23.2222 8.90602C23.2222 8.67001 23.0309 8.47867 22.7949 8.47867H18.5791C20.1605 6.40325 22.6573 5.06108 25.4618 5.05981ZM25.8932 4.21459V1.42735C25.8932 1.19135 25.7018 1 25.4658 1C25.2298 1 25.0385 1.19135 25.0385 1.42735V4.21459C19.9929 4.43881 15.9572 8.61378 15.9572 13.7137C15.9572 13.7488 15.9575 13.7844 15.958 13.8205H13.1795C12.9435 13.8205 12.7521 14.0119 12.7521 14.2479V25.5726H8.90595C8.66995 25.5726 8.4786 25.764 8.4786 26V46.2991V50.1453H5.70085C5.46484 50.1453 5.2735 50.3366 5.2735 50.5726C5.2735 50.8086 5.46484 51 5.70085 51H8.90208L8.90595 51H42.0256L42.0295 51H45.2308C45.4668 51 45.6581 50.8086 45.6581 50.5726C45.6581 50.3366 45.4668 50.1453 45.2308 50.1453H42.453V46.3036L42.453 46.2991L42.453 46.2946V26C42.453 25.764 42.2616 25.5726 42.0256 25.5726H38.1795V14.2479C38.1795 14.0119 37.9881 13.8205 37.7521 13.8205H34.9736C34.9741 13.7843 34.9743 13.7487 34.9743 13.7137C34.9743 8.61382 30.9387 4.43887 25.8932 4.21459ZM13.1795 26.4274H37.7521L37.7577 26.4273H41.5983V45.8718H28.5641V43.0939C28.5641 42.8579 28.3727 42.6666 28.1367 42.6666H22.7949C22.5589 42.6666 22.3675 42.8579 22.3675 43.0939V45.8718H9.3333V26.4273H13.1738L13.1795 26.4274ZM37.3248 25.5726H13.6068V14.6752H37.3248V25.5726ZM41.5983 46.7265V50.1453L28.5641 50.1453V46.7265H41.5983ZM9.3333 50.1453H22.3675V46.7265H9.3333V50.1453ZM27.7094 50.1452H23.2222V43.5213H27.7094V50.1452ZM6.23504 8.26497C5.1157 8.26497 4.20513 7.3544 4.20513 6.23506C4.20513 6.19948 4.20609 6.1638 4.20801 6.12822H3.02991C1.91058 6.12822 1 5.21764 1 4.09831C1 2.97897 1.91058 2.06839 3.02991 2.06839H9.44017C10.5595 2.06839 11.4701 2.97897 11.4701 4.09831C11.4701 4.13388 11.4691 4.16957 11.4672 4.20514H12.6453C13.7646 4.20514 14.6752 5.11572 14.6752 6.23506C14.6752 7.3544 13.7646 8.26497 12.6453 8.26497H6.23504ZM3.02991 2.92309C2.38194 2.92309 1.8547 3.45033 1.8547 4.09831C1.8547 4.74628 2.38194 5.27352 3.02991 5.27352H4.72564C4.86442 5.27352 4.99466 5.34093 5.07468 5.45429C5.1547 5.56764 5.17479 5.71284 5.12842 5.84371C5.08291 5.97213 5.05983 6.10375 5.05983 6.23506C5.05983 6.88303 5.58707 7.41027 6.23504 7.41027H12.6453C13.2933 7.41027 13.8205 6.88303 13.8205 6.23506C13.8205 5.58709 13.2933 5.05984 12.6453 5.05984H10.9496C10.8108 5.05984 10.6807 4.99254 10.6006 4.87918C10.5205 4.76583 10.5004 4.62074 10.5467 4.48987C10.5923 4.36113 10.6154 4.22939 10.6154 4.09831C10.6154 3.45033 10.0881 2.92309 9.44017 2.92309H3.02991ZM43.8953 12.7166C42.9233 12.7166 42.1325 11.9258 42.1325 10.9538L42.1326 10.9359H41.2244C40.2523 10.9359 39.4615 10.1451 39.4615 9.1731C39.4615 8.20109 40.2523 7.41028 41.2244 7.41028H46.5662C47.5382 7.41028 48.3291 8.20109 48.3291 9.1731L48.3289 9.19094H49.2372C50.2092 9.19094 51 9.98175 51 10.9538C51 11.9258 50.2092 12.7166 49.2372 12.7166H43.8953ZM41.2244 8.26498C40.7236 8.26498 40.3162 8.67235 40.3162 9.1731C40.3162 9.67385 40.7236 10.0812 41.2244 10.0812H42.6375C42.7763 10.0812 42.9064 10.1485 42.9865 10.2619C43.0666 10.3752 43.0867 10.5203 43.0404 10.6512C43.0051 10.7509 42.9873 10.8527 42.9873 10.9539C42.9873 11.4546 43.3947 11.862 43.8954 11.862H49.2373C49.738 11.862 50.1454 11.4546 50.1454 10.9539C50.1454 10.4531 49.738 10.0457 49.2373 10.0457H47.8241C47.6854 10.0457 47.5552 9.97844 47.4751 9.86509C47.3951 9.75173 47.3749 9.60665 47.4213 9.47577C47.4565 9.37609 47.4744 9.27427 47.4744 9.1731C47.4744 8.67235 47.067 8.26498 46.5662 8.26498H41.2244Z" fill="url(#paint1_linear)"/>
<path d="M25.4658 5.05983L25.4635 5.55984L25.4681 5.55982L25.4658 5.05983ZM25.4618 5.05981L25.4641 4.55981L25.4616 4.55981L25.4618 5.05981ZM25.4699 5.05981L25.4701 4.5598L25.4675 4.55982L25.4699 5.05981ZM33.7051 11.0649L33.4397 11.4887L34.6014 12.2162L34.181 10.9116L33.7051 11.0649ZM33.8624 11.6154L34.3475 11.4942L34.0161 10.1682L33.4136 11.3951L33.8624 11.6154ZM34.1188 13.8205V14.3205H34.6115L34.6187 13.8278L34.1188 13.8205ZM16.8128 13.8205L16.3129 13.8293L16.3216 14.3205H16.8128V13.8205ZM18.1434 9.10566L18.5853 8.87172L18.1815 8.10897L17.7207 8.83868L18.1434 9.10566ZM18.5791 8.47867L18.1814 8.17562L17.5695 8.97867H18.5791V8.47867ZM25.8932 4.21459H25.3932V4.69286L25.871 4.7141L25.8932 4.21459ZM25.0385 4.21459L25.0607 4.71409L25.5385 4.69286V4.21459H25.0385ZM15.958 13.8205V14.3205H16.4647L16.4579 13.8138L15.958 13.8205ZM12.7521 25.5726V26.0726H13.2521V25.5726H12.7521ZM8.4786 50.1453V50.6453H8.9786V50.1453H8.4786ZM8.90208 51L8.90454 50.5H8.90208V51ZM8.90595 51L8.90349 51.5H8.90595V51ZM42.0256 51V51.5L42.0281 51.5L42.0256 51ZM42.0295 51V50.5L42.027 50.5L42.0295 51ZM42.453 50.1453H41.953V50.6453H42.453V50.1453ZM42.453 46.3036L41.953 46.301V46.3036H42.453ZM42.453 46.2991L42.953 46.3017L42.953 46.2966L42.453 46.2991ZM42.453 46.2946H41.953L41.953 46.2972L42.453 46.2946ZM38.1795 25.5726H37.6795V26.0726H38.1795V25.5726ZM34.9736 13.8205L34.4736 13.8138L34.4668 14.3205H34.9736V13.8205ZM37.7521 26.4274V26.9274L37.7553 26.9274L37.7521 26.4274ZM13.1795 26.4274L13.1762 26.9274H13.1795V26.4274ZM37.7577 26.4273V25.9273L37.7545 25.9273L37.7577 26.4273ZM41.5983 26.4273H42.0983V25.9273H41.5983V26.4273ZM41.5983 45.8718V46.3718H42.0983V45.8718H41.5983ZM28.5641 45.8718H28.0641V46.3718H28.5641V45.8718ZM22.3675 45.8718V46.3718H22.8675V45.8718H22.3675ZM9.3333 45.8718H8.8333V46.3718H9.3333V45.8718ZM9.3333 26.4273V25.9273H8.8333V26.4273H9.3333ZM13.1738 26.4273L13.1771 25.9273H13.1738V26.4273ZM13.6068 25.5726H13.1068V26.0726H13.6068V25.5726ZM37.3248 25.5726V26.0726H37.8248V25.5726H37.3248ZM13.6068 14.6752V14.1752H13.1068V14.6752H13.6068ZM37.3248 14.6752H37.8248V14.1752H37.3248V14.6752ZM41.5983 50.1453V50.6453H42.0983V50.1453H41.5983ZM41.5983 46.7265H42.0983V46.2265H41.5983V46.7265ZM28.5641 50.1453H28.0641V50.6453H28.5641V50.1453ZM28.5641 46.7265V46.2265H28.0641V46.7265H28.5641ZM22.3675 50.1453V50.6453H22.8675V50.1453H22.3675ZM9.3333 50.1453H8.8333V50.6453H9.3333V50.1453ZM22.3675 46.7265H22.8675V46.2265H22.3675V46.7265ZM9.3333 46.7265V46.2265H8.8333V46.7265H9.3333ZM23.2222 50.1452H22.7222V50.6452H23.2222V50.1452ZM27.7094 50.1452V50.6452H28.2094V50.1452H27.7094ZM23.2222 43.5213V43.0213H22.7222V43.5213H23.2222ZM27.7094 43.5213H28.2094V43.0213H27.7094V43.5213ZM4.20801 6.12822L4.70728 6.15521L4.73577 5.62822H4.20801V6.12822ZM11.4672 4.20514L10.9679 4.17815L10.9394 4.70514H11.4672V4.20514ZM5.07468 5.45429L5.48315 5.16593L5.48315 5.16593L5.07468 5.45429ZM5.12842 5.84371L5.5997 6.01074L5.59971 6.01068L5.12842 5.84371ZM10.6006 4.87918L11.0091 4.59082L11.0089 4.59057L10.6006 4.87918ZM10.5467 4.48987L10.0754 4.32286L10.0753 4.32323L10.5467 4.48987ZM42.1325 10.9538L41.6325 10.9508V10.9538H42.1325ZM42.1326 10.9359L42.6326 10.9389L42.6356 10.4359H42.1326V10.9359ZM48.3291 9.1731L48.8291 9.17609V9.1731H48.3291ZM48.3289 9.19094L47.829 9.18795L47.8259 9.69094H48.3289V9.19094ZM42.9865 10.2619L43.395 9.97353L43.3948 9.97327L42.9865 10.2619ZM43.0404 10.6512L42.5691 10.4842L42.569 10.4845L43.0404 10.6512ZM47.4751 9.86509L47.0666 10.1534L47.0668 10.1537L47.4751 9.86509ZM47.4213 9.47577L47.8925 9.64275L47.8926 9.64249L47.4213 9.47577ZM25.4681 4.55983L25.4641 4.55982L25.4595 5.55981L25.4635 5.55982L25.4681 4.55983ZM25.4675 4.55982L25.4635 4.55983L25.4681 5.55982L25.4722 5.55981L25.4675 4.55982ZM34.181 10.9116C32.9956 7.23258 29.5403 4.5617 25.4701 4.55981L25.4696 5.55981C29.0923 5.56149 32.1726 7.93927 33.2292 11.2183L34.181 10.9116ZM33.4786 11.5C33.4652 11.5 33.4513 11.4959 33.4397 11.4887L33.9705 10.6412C33.8276 10.5517 33.6584 10.5 33.4786 10.5V11.5ZM26 11.5H33.4786V10.5H26V11.5ZM26.0726 11.4274C26.0726 11.4675 26.0401 11.5 26 11.5V10.5C25.4878 10.5 25.0726 10.9152 25.0726 11.4274H26.0726ZM26 11.3547C26.0401 11.3547 26.0726 11.3872 26.0726 11.4274H25.0726C25.0726 11.9395 25.4878 12.3547 26 12.3547V11.3547ZM33.4786 11.3547H26V12.3547H33.4786V11.3547ZM33.4136 11.3951C33.4248 11.3722 33.4492 11.3547 33.4786 11.3547V12.3547C33.8451 12.3547 34.1609 12.1421 34.3112 11.8358L33.4136 11.3951ZM34.6196 13.7137C34.6196 12.9491 34.5253 12.2055 34.3475 11.4942L33.3774 11.7367C33.5355 12.3694 33.6196 13.0316 33.6196 13.7137H34.6196ZM34.6187 13.8278C34.6193 13.7897 34.6196 13.7516 34.6196 13.7137H33.6196C33.6196 13.7456 33.6193 13.7786 33.6188 13.8131L34.6187 13.8278ZM16.8128 14.3205H34.1188V13.3205H16.8128V14.3205ZM16.3119 13.7137C16.3119 13.7507 16.3122 13.7893 16.3129 13.8293L17.3127 13.8116C17.3121 13.7792 17.3119 13.7467 17.3119 13.7137H16.3119ZM17.7207 8.83868C16.8287 10.2511 16.3119 11.9237 16.3119 13.7137H17.3119C17.3119 12.1187 17.7719 10.6304 18.5662 9.37265L17.7207 8.83868ZM18.5214 8.83337C18.55 8.83337 18.5738 8.85 18.5853 8.87172L17.7015 9.3396C17.8564 9.63218 18.165 9.83337 18.5214 9.83337V8.83337ZM22.7949 8.83337H18.5214V9.83337H22.7949V8.83337ZM22.7222 8.90602C22.7222 8.86588 22.7547 8.83337 22.7949 8.83337V9.83337C23.307 9.83337 23.7222 9.41817 23.7222 8.90602H22.7222ZM22.7949 8.97867C22.7547 8.97867 22.7222 8.94616 22.7222 8.90602H23.7222C23.7222 8.39387 23.307 7.97867 22.7949 7.97867V8.97867ZM18.5791 8.97867H22.7949V7.97867H18.5791V8.97867ZM25.4616 4.55981C22.494 4.56115 19.853 5.98192 18.1814 8.17562L18.9768 8.78171C20.4681 6.82457 22.8206 5.56101 25.462 5.55981L25.4616 4.55981ZM25.3932 1.42735V4.21459H26.3932V1.42735H25.3932ZM25.4658 1.5C25.4257 1.5 25.3932 1.46749 25.3932 1.42735H26.3932C26.3932 0.915201 25.978 0.5 25.4658 0.5V1.5ZM25.5385 1.42735C25.5385 1.46749 25.506 1.5 25.4658 1.5V0.5C24.9537 0.5 24.5385 0.915205 24.5385 1.42735H25.5385ZM25.5385 4.21459V1.42735H24.5385V4.21459H25.5385ZM16.4572 13.7137C16.4572 8.8826 20.2811 4.9265 25.0607 4.71409L25.0163 3.71508C19.7048 3.95112 15.4572 8.34497 15.4572 13.7137H16.4572ZM16.4579 13.8138C16.4575 13.7799 16.4572 13.7465 16.4572 13.7137H15.4572C15.4572 13.7511 15.4575 13.7889 15.458 13.8272L16.4579 13.8138ZM13.1795 14.3205H15.958V13.3205H13.1795V14.3205ZM13.2521 14.2479C13.2521 14.288 13.2196 14.3205 13.1795 14.3205V13.3205C12.6673 13.3205 12.2521 13.7357 12.2521 14.2479H13.2521ZM13.2521 25.5726V14.2479H12.2521V25.5726H13.2521ZM8.90595 26.0726H12.7521V25.0726H8.90595V26.0726ZM8.9786 26C8.9786 26.0401 8.94609 26.0726 8.90595 26.0726V25.0726C8.3938 25.0726 7.9786 25.4878 7.9786 26H8.9786ZM8.9786 46.2991V26H7.9786V46.2991H8.9786ZM8.9786 50.1453V46.2991H7.9786V50.1453H8.9786ZM5.70085 50.6453H8.4786V49.6453H5.70085V50.6453ZM5.7735 50.5726C5.7735 50.6128 5.74099 50.6453 5.70085 50.6453V49.6453C5.1887 49.6453 4.7735 50.0605 4.7735 50.5726H5.7735ZM5.70085 50.5C5.74098 50.5 5.7735 50.5325 5.7735 50.5726H4.7735C4.7735 51.0848 5.18871 51.5 5.70085 51.5V50.5ZM8.90208 50.5H5.70085V51.5H8.90208V50.5ZM8.90841 50.5L8.90454 50.5L8.89962 51.5L8.90349 51.5L8.90841 50.5ZM42.0256 50.5H8.90595V51.5H42.0256V50.5ZM42.027 50.5L42.0232 50.5L42.0281 51.5L42.032 51.5L42.027 50.5ZM45.2308 50.5H42.0295V51.5H45.2308V50.5ZM45.1581 50.5726C45.1581 50.5325 45.1906 50.5 45.2308 50.5V51.5C45.7429 51.5 46.1581 51.0848 46.1581 50.5726H45.1581ZM45.2308 50.6453C45.1906 50.6453 45.1581 50.6127 45.1581 50.5726H46.1581C46.1581 50.0605 45.7429 49.6453 45.2308 49.6453V50.6453ZM42.453 50.6453H45.2308V49.6453H42.453V50.6453ZM41.953 46.3036V50.1453H42.953V46.3036H41.953ZM41.953 46.2966L41.953 46.301L42.953 46.3061L42.953 46.3017L41.953 46.2966ZM41.953 46.2972L41.953 46.3017L42.953 46.2966L42.953 46.2921L41.953 46.2972ZM41.953 26V46.2946H42.953V26H41.953ZM42.0256 26.0726C41.9855 26.0726 41.953 26.0401 41.953 26H42.953C42.953 25.4878 42.5378 25.0726 42.0256 25.0726V26.0726ZM38.1795 26.0726H42.0256V25.0726H38.1795V26.0726ZM37.6795 14.2479V25.5726H38.6795V14.2479H37.6795ZM37.7521 14.3205C37.712 14.3205 37.6795 14.288 37.6795 14.2479H38.6795C38.6795 13.7357 38.2643 13.3205 37.7521 13.3205V14.3205ZM34.9736 14.3205H37.7521V13.3205H34.9736V14.3205ZM34.4743 13.7137C34.4743 13.7464 34.4741 13.7798 34.4736 13.8138L35.4735 13.8273C35.4741 13.7889 35.4743 13.7511 35.4743 13.7137H34.4743ZM25.871 4.7141C30.6505 4.92656 34.4743 8.88263 34.4743 13.7137H35.4743C35.4743 8.34501 31.2268 3.95118 25.9154 3.71508L25.871 4.7141ZM37.7521 25.9274H13.1795V26.9274H37.7521V25.9274ZM37.7545 25.9273L37.7489 25.9274L37.7553 26.9274L37.761 26.9273L37.7545 25.9273ZM41.5983 25.9273H37.7577V26.9273H41.5983V25.9273ZM42.0983 45.8718V26.4273H41.0983V45.8718H42.0983ZM28.5641 46.3718H41.5983V45.3718H28.5641V46.3718ZM28.0641 43.0939V45.8718H29.0641V43.0939H28.0641ZM28.1367 43.1666C28.0966 43.1666 28.0641 43.134 28.0641 43.0939H29.0641C29.0641 42.5818 28.6489 42.1666 28.1367 42.1666V43.1666ZM22.7949 43.1666H28.1367V42.1666H22.7949V43.1666ZM22.8675 43.0939C22.8675 43.1341 22.835 43.1666 22.7949 43.1666V42.1666C22.2827 42.1666 21.8675 42.5818 21.8675 43.0939H22.8675ZM22.8675 45.8718V43.0939H21.8675V45.8718H22.8675ZM9.3333 46.3718H22.3675V45.3718H9.3333V46.3718ZM8.8333 26.4273V45.8718H9.8333V26.4273H8.8333ZM13.1738 25.9273H9.3333V26.9273H13.1738V25.9273ZM13.1827 25.9274L13.1771 25.9273L13.1706 26.9273L13.1762 26.9274L13.1827 25.9274ZM13.6068 26.0726H37.3248V25.0726H13.6068V26.0726ZM13.1068 14.6752V25.5726H14.1068V14.6752H13.1068ZM37.3248 14.1752H13.6068V15.1752H37.3248V14.1752ZM37.8248 25.5726V14.6752H36.8248V25.5726H37.8248ZM42.0983 50.1453V46.7265H41.0983V50.1453H42.0983ZM28.5641 50.6453L41.5983 50.6453V49.6453L28.5641 49.6453V50.6453ZM28.0641 46.7265V50.1453H29.0641V46.7265H28.0641ZM41.5983 46.2265H28.5641V47.2265H41.5983V46.2265ZM22.3675 49.6453H9.3333V50.6453H22.3675V49.6453ZM21.8675 46.7265V50.1453H22.8675V46.7265H21.8675ZM9.3333 47.2265H22.3675V46.2265H9.3333V47.2265ZM9.8333 50.1453V46.7265H8.8333V50.1453H9.8333ZM23.2222 50.6452H27.7094V49.6452H23.2222V50.6452ZM22.7222 43.5213V50.1452H23.7222V43.5213H22.7222ZM27.7094 43.0213H23.2222V44.0213H27.7094V43.0213ZM28.2094 50.1452V43.5213H27.2094V50.1452H28.2094ZM3.70513 6.23506C3.70513 7.63054 4.83956 8.76497 6.23504 8.76497V7.76497C5.39185 7.76497 4.70513 7.07825 4.70513 6.23506H3.70513ZM3.70874 6.10123C3.70633 6.14581 3.70513 6.19049 3.70513 6.23506H4.70513C4.70513 6.20847 4.70585 6.18178 4.70728 6.15521L3.70874 6.10123ZM3.02991 6.62822H4.20801V5.62822H3.02991V6.62822ZM0.5 4.09831C0.5 5.49379 1.63443 6.62822 3.02991 6.62822V5.62822C2.18672 5.62822 1.5 4.9415 1.5 4.09831H0.5ZM3.02991 1.56839C1.63443 1.56839 0.5 2.70282 0.5 4.09831H1.5C1.5 3.25511 2.18672 2.56839 3.02991 2.56839V1.56839ZM9.44017 1.56839H3.02991V2.56839H9.44017V1.56839ZM11.9701 4.09831C11.9701 2.70282 10.8357 1.56839 9.44017 1.56839V2.56839C10.2834 2.56839 10.9701 3.25511 10.9701 4.09831H11.9701ZM11.9665 4.23214C11.9689 4.18755 11.9701 4.14287 11.9701 4.09831H10.9701C10.9701 4.1249 10.9694 4.15158 10.9679 4.17815L11.9665 4.23214ZM12.6453 3.70514H11.4672V4.70514H12.6453V3.70514ZM15.1752 6.23506C15.1752 4.83958 14.0408 3.70514 12.6453 3.70514V4.70514C13.4885 4.70514 14.1752 5.39186 14.1752 6.23506H15.1752ZM12.6453 8.76497C14.0408 8.76497 15.1752 7.63054 15.1752 6.23506H14.1752C14.1752 7.07825 13.4885 7.76497 12.6453 7.76497V8.76497ZM6.23504 8.76497H12.6453V7.76497H6.23504V8.76497ZM2.3547 4.09831C2.3547 3.72648 2.65809 3.42309 3.02991 3.42309V2.42309C2.1058 2.42309 1.3547 3.17419 1.3547 4.09831H2.3547ZM3.02991 4.77352C2.65809 4.77352 2.3547 4.47013 2.3547 4.09831H1.3547C1.3547 5.02242 2.1058 5.77352 3.02991 5.77352V4.77352ZM4.72564 4.77352H3.02991V5.77352H4.72564V4.77352ZM5.48315 5.16593C5.30934 4.91972 5.0267 4.77352 4.72564 4.77352V5.77352C4.70214 5.77352 4.67998 5.76215 4.66621 5.74265L5.48315 5.16593ZM5.59971 6.01068C5.70031 5.72675 5.65672 5.4118 5.48315 5.16593L4.66621 5.74264C4.65268 5.72348 4.64926 5.69892 4.65712 5.67674L5.59971 6.01068ZM5.55983 6.23506C5.55983 6.16281 5.57246 6.08759 5.5997 6.01074L4.65714 5.67669C4.59335 5.85667 4.55983 6.04469 4.55983 6.23506H5.55983ZM6.23504 6.91027C5.86321 6.91027 5.55983 6.60689 5.55983 6.23506H4.55983C4.55983 7.15917 5.31093 7.91027 6.23504 7.91027V6.91027ZM12.6453 6.91027H6.23504V7.91027H12.6453V6.91027ZM13.3205 6.23506C13.3205 6.60689 13.0171 6.91027 12.6453 6.91027V7.91027C13.5694 7.91027 14.3205 7.15917 14.3205 6.23506H13.3205ZM12.6453 5.55984C13.0171 5.55984 13.3205 5.86323 13.3205 6.23506H14.3205C14.3205 5.31095 13.5694 4.55984 12.6453 4.55984V5.55984ZM10.9496 5.55984H12.6453V4.55984H10.9496V5.55984ZM10.1922 5.16754C10.3661 5.41386 10.6486 5.55984 10.9496 5.55984V4.55984C10.9729 4.55984 10.9953 4.57121 11.0091 4.59082L10.1922 5.16754ZM10.0753 4.32323C9.97496 4.60703 10.0185 4.92186 10.1923 5.16779L11.0089 4.59057C11.0225 4.6098 11.0259 4.63445 11.0181 4.6565L10.0753 4.32323ZM10.1154 4.09831C10.1154 4.17027 10.1028 4.2456 10.0754 4.32286L11.018 4.65687C11.0818 4.47665 11.1154 4.28852 11.1154 4.09831H10.1154ZM9.44017 3.42309C9.812 3.42309 10.1154 3.72648 10.1154 4.09831H11.1154C11.1154 3.17419 10.3643 2.42309 9.44017 2.42309V3.42309ZM3.02991 3.42309H9.44017V2.42309H3.02991V3.42309ZM41.6325 10.9538C41.6325 12.2019 42.6471 13.2166 43.8953 13.2166V12.2166C43.1994 12.2166 42.6325 11.6496 42.6325 10.9538H41.6325ZM41.6326 10.9329L41.6325 10.9508L42.6325 10.9568L42.6326 10.9389L41.6326 10.9329ZM41.2244 11.4359H42.1326V10.4359H41.2244V11.4359ZM38.9615 9.1731C38.9615 10.4213 39.9762 11.4359 41.2244 11.4359V10.4359C40.5285 10.4359 39.9615 9.86897 39.9615 9.1731H38.9615ZM41.2244 6.91028C39.9762 6.91028 38.9615 7.92495 38.9615 9.1731H39.9615C39.9615 8.47723 40.5285 7.91028 41.2244 7.91028V6.91028ZM46.5662 6.91028H41.2244V7.91028H46.5662V6.91028ZM48.8291 9.1731C48.8291 7.92495 47.8144 6.91028 46.5662 6.91028V7.91028C47.2621 7.91028 47.8291 8.47723 47.8291 9.1731H48.8291ZM48.8289 9.19394L48.829 9.17609L47.8291 9.17011L47.829 9.18795L48.8289 9.19394ZM49.2372 8.69094H48.3289V9.69094H49.2372V8.69094ZM51.5 10.9538C51.5 9.70561 50.4853 8.69094 49.2372 8.69094V9.69094C49.933 9.69094 50.5 10.2579 50.5 10.9538H51.5ZM49.2372 13.2166C50.4853 13.2166 51.5 12.2019 51.5 10.9538H50.5C50.5 11.6496 49.933 12.2166 49.2372 12.2166V13.2166ZM43.8953 13.2166H49.2372V12.2166H43.8953V13.2166ZM40.8162 9.1731C40.8162 8.94849 40.9997 8.76498 41.2244 8.76498V7.76498C40.4475 7.76498 39.8162 8.39621 39.8162 9.1731H40.8162ZM41.2244 9.58122C40.9997 9.58122 40.8162 9.39771 40.8162 9.1731H39.8162C39.8162 9.94999 40.4475 10.5812 41.2244 10.5812V9.58122ZM42.6375 9.58122H41.2244V10.5812H42.6375V9.58122ZM43.3948 9.97327C43.2209 9.72724 42.9385 9.58122 42.6375 9.58122V10.5812C42.6141 10.5812 42.5919 10.5698 42.5782 10.5505L43.3948 9.97327ZM43.5117 10.8182C43.6124 10.5339 43.5684 10.2191 43.395 9.97353L42.5781 10.5502C42.5647 10.5314 42.5611 10.5067 42.5691 10.4842L43.5117 10.8182ZM43.4873 10.9539C43.4873 10.9119 43.4946 10.8664 43.5118 10.8179L42.569 10.4845C42.5156 10.6354 42.4873 10.7935 42.4873 10.9539H43.4873ZM43.8954 11.362C43.6708 11.362 43.4873 11.1785 43.4873 10.9539H42.4873C42.4873 11.7308 43.1185 12.362 43.8954 12.362V11.362ZM49.2373 11.362H43.8954V12.362H49.2373V11.362ZM49.6454 10.9539C49.6454 11.1785 49.4619 11.362 49.2373 11.362V12.362C50.0142 12.362 50.6454 11.7308 50.6454 10.9539H49.6454ZM49.2373 10.5457C49.4619 10.5457 49.6454 10.7293 49.6454 10.9539H50.6454C50.6454 10.177 50.0142 9.54575 49.2373 9.54575V10.5457ZM47.8241 10.5457H49.2373V9.54575H47.8241V10.5457ZM47.0668 10.1537C47.2407 10.3997 47.5232 10.5457 47.8241 10.5457V9.54575C47.8476 9.54575 47.8697 9.55715 47.8834 9.57647L47.0668 10.1537ZM46.95 9.3088C46.8493 9.59305 46.8932 9.90784 47.0666 10.1534L47.8836 9.57673C47.8969 9.59562 47.9005 9.62025 47.8925 9.64275L46.95 9.3088ZM46.9744 9.1731C46.9744 9.21503 46.967 9.26056 46.9499 9.30905L47.8926 9.64249C47.946 9.49162 47.9744 9.33352 47.9744 9.1731H46.9744ZM46.5662 8.76498C46.7908 8.76498 46.9744 8.9485 46.9744 9.1731H47.9744C47.9744 8.39621 47.3431 7.76498 46.5662 7.76498V8.76498ZM41.2244 8.76498H46.5662V7.76498H41.2244V8.76498Z" fill="url(#paint2_linear)"/>
<defs>
<linearGradient id="paint0_linear" x1="37.7521" y1="16.3847" x2="10.3707" y2="20.066" gradientUnits="userSpaceOnUse">
<stop stop-color="#E4B6B3"/>
<stop offset="1" stop-color="#98B1CF"/>
</linearGradient>
<linearGradient id="paint1_linear" x1="51" y1="1" x2="-4.71515" y2="8.4906" gradientUnits="userSpaceOnUse">
<stop stop-color="#E4B6B3"/>
<stop offset="1" stop-color="#98B1CF"/>
</linearGradient>
<linearGradient id="paint2_linear" x1="51" y1="1" x2="-4.71515" y2="8.4906" gradientUnits="userSpaceOnUse">
<stop stop-color="#E4B6B3"/>
<stop offset="1" stop-color="#98B1CF"/>
</linearGradient>
</defs>
</svg>
