<svg width="50" height="40" viewBox="0 0 50 40" fill="none" xmlns="http://www.w3.org/2000/svg">
<path d="M17.1215 9.38721C19.7067 9.38721 21.8101 7.27921 21.8101 4.68827C21.8101 2.10343 19.7067 0 17.1215 0C14.5363 0 12.4332 2.10342 12.4332 4.68827C12.4332 7.27921 14.5363 9.38721 17.1215 9.38721ZM17.1215 1.5625C18.8454 1.5625 20.2476 2.96478 20.2476 4.68827C20.2476 6.41785 18.8454 7.82471 17.1215 7.82471C15.398 7.82471 13.9957 6.41785 13.9957 4.68827C13.9957 2.96478 15.398 1.5625 17.1215 1.5625Z" fill="url(#paint0_linear)"/>
<path d="M49.2188 37.59H48.8521C48.5153 36.3924 47.4394 35.5005 46.1433 35.4683C45.5664 34.3299 44.3055 33.7138 43.0367 33.9409C42.6364 32.8624 41.6946 32.0602 40.5476 31.8358C40.3691 30.8861 40.0942 28.6873 40.7093 26.2731C43.0634 26.1779 46.6984 24.8957 47.324 20.359C47.3339 20.2804 47.5567 18.4135 47.012 16.7381C46.9101 16.4253 46.6232 16.2101 46.2944 16.1995C46.0571 16.1903 40.5361 16.056 38.8184 20.0012C38.6161 20.3819 37.556 22.6706 39.2297 25.6561C38.5129 28.263 38.752 30.6745 38.9673 31.9069C37.9454 32.2075 37.1225 32.983 36.7615 33.9988C35.437 33.6354 34.0298 34.2363 33.4064 35.4683C32.1072 35.4979 31.0282 36.3905 30.6908 37.59H15.8524C15.906 37.4623 15.9568 37.3327 15.9908 37.194L17.2771 31.3072C17.4774 30.4931 17.4187 29.6516 17.1078 28.8734L15.0158 23.6358C14.9572 23.4895 14.9541 23.3315 14.9762 23.1762L19.0385 24.2382L20.8626 25.943C21.8298 26.7982 23.3441 26.6477 24.112 25.5645L26.6892 26.2383L25.2789 28.1067C25.1221 28.3142 25.079 28.5865 25.164 28.8322C25.2491 29.0786 25.4509 29.2663 25.7027 29.3327L32.6958 31.1836C33.1169 31.2937 33.5413 31.0425 33.651 30.6282C33.7612 30.2108 33.5125 29.7836 33.0956 29.673L27.227 28.1196L28.2541 26.7587L34.2217 28.6201C34.6417 28.7484 35.0736 28.5127 35.2001 28.1067C35.3287 27.6947 35.099 27.2567 34.687 27.1278L29.2544 25.4333L30.1556 24.2393L36.1629 26.0849C36.5726 26.2115 37.0121 25.9796 37.1391 25.5676C37.2658 25.1548 37.0342 24.7177 36.6215 24.591L30.0911 22.5853C29.779 22.4907 29.4361 22.599 29.2381 22.8614L27.7076 24.889L24.5071 24.0524C24.4519 23.5541 24.2266 23.0744 23.838 22.7035L20.8412 19.8433C20.4071 19.4297 20.1229 18.8743 20.0405 18.28L19.371 13.462C19.2139 12.3291 18.4601 11.3517 17.4042 10.9108L12.5664 8.89203C11.7214 8.54031 10.7624 8.56167 9.93384 8.95001L4.30602 11.5936C3.45381 11.9941 2.787 12.7334 2.47687 13.6223L1.13028 17.4797C0.693883 18.7278 1.35077 20.1072 2.59436 20.5558C3.62273 20.9289 4.41576 20.4628 4.50538 20.4387L5.85026 20.7904L5.59653 21.5637C5.52825 21.7712 5.48819 21.9879 5.47713 22.2068L5.15594 28.569C5.11359 29.4014 4.78744 30.2047 4.23698 30.8303C4.21866 30.8509 4.20112 30.8731 4.18509 30.896L1.46255 34.7618C0.774148 35.5705 0.6505 36.6752 1.06802 37.59H0.78125C0.349805 37.59 0 37.9394 0 38.3712C0 38.8031 0.349805 39.1525 0.78125 39.1525C12.7781 39.1525 37.204 39.1525 49.2188 39.1525C49.6502 39.1525 50 38.8031 50 38.3712C50 37.9394 49.6502 37.59 49.2188 37.59ZM40.1955 20.7374C40.2122 20.7092 40.2271 20.6802 40.2397 20.6497C41.2491 18.2876 44.3737 17.8535 45.6711 17.7765C45.9141 18.9628 45.7752 20.1523 45.7748 20.1561C45.3071 23.5487 42.7905 24.4253 41.2621 24.6435C41.8257 23.3463 42.6993 22.059 44.0403 20.9396C44.3718 20.6634 44.416 20.1706 44.1395 19.8395C43.8629 19.5076 43.3704 19.4633 43.0393 19.7403C41.6408 20.9077 40.6817 22.2189 40.028 23.5475C39.577 21.8863 40.166 20.7906 40.1955 20.7374ZM34.6912 36.4761C34.9178 35.4977 36.1058 35.1471 36.8412 35.7635C37.3081 36.1554 38.1249 35.8281 38.1249 35.1127C38.1249 34.1293 38.9221 33.329 39.9021 33.329C40.8535 33.329 41.6348 34.0713 41.6801 35.0197C41.6935 35.2958 41.8514 35.5438 42.0956 35.6727C42.6863 35.9894 42.8482 35.4568 43.557 35.4568C45.16 35.4568 44.5509 37.3586 45.7939 37.062C46.3551 36.9354 46.8643 37.1818 47.1577 37.5885H32.3856C33.1957 36.4648 34.4201 37.6524 34.6912 36.4761ZM15.5509 21.7109L15.9931 20.6726L16.0076 20.7832C16.0671 21.2402 16.2853 21.6652 16.6225 21.9803L16.6386 21.9953L15.5509 21.7109ZM5.67279 19.1284C5.68886 19.0857 5.71241 19.0472 5.72624 19.0033L6.66923 15.9973C6.72378 15.8233 6.85081 15.6799 7.01638 15.6044L7.64542 15.319L6.33846 19.3025L5.67279 19.1284ZM2.66533 35.7597C2.70947 35.7092 3.49795 34.5834 5.43899 31.829C6.20422 30.944 6.65741 29.8164 6.71616 28.6483L7.03735 22.2862C7.04155 22.2061 7.05642 22.1267 7.08122 22.0504L9.68475 14.1143C9.78127 13.8199 9.69467 13.4964 9.46388 13.2888C9.23271 13.0821 8.90159 13.0302 8.61931 13.1599L6.36941 14.1822C5.79987 14.4416 5.36576 14.9322 5.17846 15.5288L4.23547 18.5356C4.08794 19.0036 3.58303 19.2515 3.12462 19.0864C2.68365 18.927 2.45057 18.4379 2.60545 17.9954L3.95241 14.1372C4.12484 13.6421 4.49601 13.2309 4.97055 13.0081L10.598 10.3645C11.0287 10.1615 11.5273 10.1516 11.9652 10.334L16.8022 12.3527C17.3504 12.5816 17.7418 13.0889 17.8234 13.6772L18.4925 18.4951C18.6237 19.4374 19.0746 20.3178 19.7624 20.9739L22.7593 23.8342C22.987 24.0516 23.0225 24.3972 22.8443 24.6566C22.6179 24.9843 22.1671 25.0098 21.9135 24.7871L17.6895 20.8389C17.6167 20.771 17.5697 20.6794 17.5572 20.5818L17.173 17.6269C17.1276 17.2775 16.8537 17.0013 16.5047 16.954C16.1583 16.9021 15.8177 17.0967 15.6796 17.4217L13.5864 22.3358C13.3293 22.9392 13.3217 23.6068 13.5647 24.2156L15.6567 29.4532C15.8463 29.9262 15.8818 30.4382 15.7551 30.9532L14.4688 36.84C14.3383 37.3716 13.7996 37.6935 13.2744 37.5602C12.7652 37.4327 12.4 36.9143 12.5771 36.2937L13.4045 32.7781C13.7512 31.5811 13.6399 30.3054 13.0909 29.1854L11.1866 25.3021C11.0543 25.032 10.7804 24.8649 10.4855 24.8649C10.4538 24.8649 10.4218 24.8664 10.3897 24.871C10.0594 24.9115 9.79082 25.1571 9.72101 25.4821L8.82112 29.6836C8.72346 30.1376 8.53959 30.5595 8.25159 30.9715L4.39453 37.1193C4.01864 37.6556 3.23286 37.7671 2.72789 37.2787C2.30293 36.8698 2.27547 36.2022 2.66533 35.7597ZM9.55277 31.8351C9.93958 31.2851 10.2074 30.6709 10.3489 30.0117L10.7765 28.0151L11.6878 29.8736C12.0655 30.6434 12.1418 31.5208 11.8938 32.3814L11.0664 35.897C10.9017 36.4659 10.9497 37.0542 11.1769 37.59H5.94258L9.55277 31.8351Z" fill="url(#paint1_linear)"/>
<defs>
<linearGradient id="paint0_linear" x1="21.8101" y1="5.20216e-07" x2="11.361" y2="1.40328" gradientUnits="userSpaceOnUse">
<stop stop-color="#E4B6B3"/>
<stop offset="1" stop-color="#98B1CF"/>
</linearGradient>
<linearGradient id="paint1_linear" x1="50" y1="8.6427" x2="-4.09611" y2="20.5617" gradientUnits="userSpaceOnUse">
<stop stop-color="#E4B6B3"/>
<stop offset="1" stop-color="#98B1CF"/>
</linearGradient>
</defs>
</svg>
