<svg width="48" height="49" viewBox="0 0 48 49" fill="none" xmlns="http://www.w3.org/2000/svg">
<path d="M46.85 1.66259C46.7412 1.35299 46.572 1.06805 46.3523 0.824299C46.1326 0.580546 45.8667 0.382825 45.57 0.242594C45.2741 0.0997642 44.9524 0.0181697 44.6242 0.00270443C44.296 -0.0127609 43.968 0.0382216 43.66 0.152594L32.66 4.15259C32.2009 4.31757 31.8001 4.61327 31.507 5.00325C31.2139 5.39323 31.0413 5.86045 31.0104 6.34733C30.9796 6.8342 31.0919 7.31946 31.3335 7.7433C31.5751 8.16713 31.9354 8.51103 32.37 8.73259V11.7326L29.68 14.4226L27.42 12.1626C27.1248 11.8679 26.7609 11.6514 26.3611 11.5327C25.9613 11.414 25.5381 11.3968 25.13 11.4826C24.7228 11.5648 24.3427 11.7479 24.0247 12.0153C23.7067 12.2826 23.4609 12.6255 23.31 13.0126L19 23.8526C18.8794 24.1554 18.8346 24.483 18.8696 24.8071C18.9045 25.1311 19.0181 25.4417 19.2005 25.7118C19.3829 25.9819 19.6285 26.2033 19.916 26.3568C20.2035 26.5103 20.5241 26.5913 20.85 26.5926C21.1073 26.5913 21.362 26.5404 21.6 26.4426L32.51 22.1326C32.8893 21.9731 33.2237 21.7227 33.4835 21.4036C33.7433 21.0845 33.9207 20.7064 34 20.3026C34.0904 19.893 34.0755 19.4672 33.9565 19.0649C33.8376 18.6627 33.6186 18.2972 33.32 18.0026L31.06 15.7426L34.06 12.7426C34.2447 12.5563 34.3489 12.3049 34.35 12.0426V8.80259L45.35 4.80259C45.6598 4.69404 45.9451 4.52505 46.1891 4.30541C46.4331 4.08577 46.6311 3.81987 46.7716 3.52312C46.912 3.22637 46.9922 2.90469 47.0074 2.57672C47.0226 2.24876 46.9725 1.92105 46.86 1.61259L46.85 1.66259ZM31.91 19.4326C31.971 19.4929 32.0157 19.5675 32.0402 19.6497C32.0647 19.7318 32.068 19.8188 32.05 19.9026C32.0338 19.9854 31.9968 20.0628 31.9426 20.1275C31.8884 20.1922 31.8187 20.2421 31.74 20.2726L20.82 24.5826L25.14 13.6726C25.1705 13.5939 25.2204 13.5242 25.2851 13.47C25.3498 13.4158 25.4272 13.3788 25.51 13.3626H25.62C25.6878 13.3629 25.7548 13.3773 25.8168 13.4048C25.8788 13.4324 25.9343 13.4725 25.98 13.5226L28.24 15.7826L26 18.0026C25.8137 18.19 25.7092 18.4434 25.7092 18.7076C25.7092 18.9718 25.8137 19.2252 26 19.4126C26.1863 19.5973 26.4377 19.7015 26.7 19.7026C26.8316 19.7034 26.9621 19.6781 27.0839 19.6284C27.2057 19.5786 27.3166 19.5053 27.41 19.4126L29.65 17.1726L31.91 19.4326ZM45 2.71259C44.9736 2.77279 44.9352 2.82693 44.887 2.87166C44.8388 2.91638 44.782 2.95074 44.72 2.97259L33.72 6.97259C33.6506 7.0061 33.5746 7.02346 33.4975 7.02337C33.4205 7.02327 33.3445 7.00572 33.2752 6.97204C33.2059 6.93836 33.1452 6.88942 33.0975 6.8289C33.0498 6.76838 33.0165 6.69784 33 6.62259C32.9615 6.49922 32.9723 6.36574 33.0301 6.25015C33.0879 6.13457 33.1882 6.04584 33.31 6.00259L44.31 2.00259H44.48C44.5492 1.98742 44.6208 1.98742 44.69 2.00259C44.7502 2.02898 44.8043 2.06744 44.8491 2.11561C44.8938 2.16377 44.9281 2.22061 44.95 2.28259C44.9894 2.34621 45.0142 2.41771 45.0229 2.49203C45.0315 2.56634 45.0237 2.64164 45 2.71259ZM47 34.0026H33V29.0026C33 28.7374 32.8946 28.483 32.7071 28.2955C32.5196 28.108 32.2652 28.0026 32 28.0026H18C17.7348 28.0026 17.4804 28.108 17.2929 28.2955C17.1054 28.483 17 28.7374 17 29.0026V34.0026H1C0.734784 34.0026 0.48043 34.1079 0.292893 34.2955C0.105357 34.483 0 34.7374 0 35.0026L0 47.0026C0 47.2678 0.105357 47.5222 0.292893 47.7097C0.48043 47.8972 0.734784 48.0026 1 48.0026H47C47.2652 48.0026 47.5196 47.8972 47.7071 47.7097C47.8946 47.5222 48 47.2678 48 47.0026V35.0026C48 34.7374 47.8946 34.483 47.7071 34.2955C47.5196 34.1079 47.2652 34.0026 47 34.0026ZM46 40.0026H41V36.0026H46V40.0026ZM39 40.0026H27V36.0026H39V40.0026ZM17 40.0026H13V36.0026H25V40.0026H17ZM19 30.0026H31V34.0026H19V30.0026ZM2 36.0026H11V40.0026H2V36.0026ZM2 42.0026H16V46.0026H2V42.0026ZM18 42.0026H30V46.0026H18V42.0026ZM46 46.0026H32V42.0026H46V46.0026Z" fill="url(#paint0_linear)"/>
<defs>
<linearGradient id="paint0_linear" x1="48" y1="2.66019e-06" x2="-5.48665" y2="7.1906" gradientUnits="userSpaceOnUse">
<stop stop-color="#E4B6B3"/>
<stop offset="1" stop-color="#98B1CF"/>
</linearGradient>
</defs>
</svg>
