<svg width="46" height="36" viewBox="0 0 46 36" fill="none" xmlns="http://www.w3.org/2000/svg">
<path d="M45.45 11.107L23.45 0.106972C23.3104 0.0366374 23.1563 0 23 0C22.8437 0 22.6896 0.0366374 22.55 0.106972L0.55 11.107C0.385085 11.1901 0.246403 11.3172 0.149323 11.4743C0.0522437 11.6314 0.000559705 11.8123 0 11.997C0.000559705 12.1816 0.0522437 12.3625 0.149323 12.5196C0.246403 12.6767 0.385085 12.8039 0.55 12.887L6 15.627V27.357C5.99966 27.5269 6.04264 27.6941 6.12487 27.8429C6.20711 27.9916 6.32589 28.1169 6.47 28.207L15.47 33.857C17.7238 35.2494 20.3208 35.9868 22.97 35.9868C25.6192 35.9868 28.2162 35.2494 30.47 33.857L39.47 28.207C39.6141 28.1169 39.7329 27.9916 39.8151 27.8429C39.8974 27.6941 39.9403 27.5269 39.94 27.357V15.627L45.39 12.897C45.5677 12.8218 45.7198 12.6968 45.828 12.5371C45.9362 12.3774 45.996 12.1898 46 11.997C45.9994 11.8123 45.9478 11.6314 45.8507 11.4743C45.7536 11.3172 45.6149 11.1901 45.45 11.107ZM38 26.807L29.44 32.157C27.5068 33.3585 25.2761 33.9952 23 33.9952C20.7239 33.9952 18.4932 33.3585 16.56 32.157L8 26.807V16.627L22.55 23.897C22.6896 23.9673 22.8437 24.0039 23 24.0039C23.1563 24.0039 23.3104 23.9673 23.45 23.897L34 18.627V25.997C34 26.2622 34.1054 26.5165 34.2929 26.7041C34.4804 26.8916 34.7348 26.997 35 26.997C35.2652 26.997 35.5196 26.8916 35.7071 26.7041C35.8946 26.5165 36 26.2622 36 25.997V17.627L38 16.627V26.807ZM35 15.867L25.47 10.147C25.3568 10.0647 25.2277 10.007 25.0908 9.9778C24.954 9.94855 24.8125 9.94835 24.6756 9.97721C24.5387 10.0061 24.4094 10.0633 24.296 10.1453C24.1826 10.2273 24.0877 10.3321 24.0173 10.4531C23.947 10.5741 23.9028 10.7084 23.8877 10.8475C23.8726 10.9866 23.8868 11.1274 23.9295 11.2606C23.9721 11.3939 24.0423 11.5167 24.1354 11.6212C24.2285 11.7256 24.3425 11.8093 24.47 11.867L32.9 16.927L22.98 21.927L3.24 11.997L23 2.12697L42.76 11.997L35 15.867Z" fill="url(#paint0_linear)"/>
<defs>
<linearGradient id="paint0_linear" x1="46" y1="1.9943e-06" x2="-4.68747" y2="8.71079" gradientUnits="userSpaceOnUse">
<stop stop-color="#E4B6B3"/>
<stop offset="1" stop-color="#98B1CF"/>
</linearGradient>
</defs>
</svg>
