<svg width="40" height="52" viewBox="0 0 40 52" fill="none" xmlns="http://www.w3.org/2000/svg">
<path d="M21.0861 50.3157C21.0861 48.7004 21.0861 47.0851 21.0861 45.4699C21.0861 41.9987 21.0861 38.5276 21.0861 35.0564C21.0861 31.7915 21.0861 28.5266 21.0861 25.2617C21.0861 24.1839 21.0861 23.1061 21.0861 22.0284C21.0861 21.3888 20.5525 20.8552 19.913 20.8552C19.2735 20.8552 18.7399 21.3888 18.7399 22.0284C18.7399 23.6436 18.7399 25.2589 18.7399 26.8742C18.7399 30.3454 18.7399 33.8165 18.7399 37.2876C18.7399 40.5525 18.7399 43.8175 18.7399 47.0825C18.7399 48.1602 18.7399 49.238 18.7399 50.3158C18.7399 50.9552 19.2735 51.4889 19.913 51.4889C20.5525 51.4889 21.0861 50.9552 21.0861 50.3157Z" fill="url(#paint0_linear)"/>
<path d="M37.3418 27.1291C37.3716 27.2684 37.3986 27.4081 37.4227 27.5485C37.4333 27.6105 37.4734 27.9039 37.4302 27.5744C37.4413 27.6589 37.4499 27.7438 37.4584 27.8286C37.4924 28.1677 37.5011 28.5089 37.4944 28.8494C37.4911 29.0198 37.4801 29.1899 37.4666 29.3597C37.4599 29.4447 37.4505 29.5294 37.4412 29.6141C37.4089 29.9086 37.4815 29.3473 37.4374 29.6404C37.3864 29.9789 37.3099 30.313 37.2185 30.6426C37.1342 30.9469 37.0283 31.2449 36.9104 31.5377C37.0261 31.25 36.9142 31.5241 36.8911 31.5754C36.8554 31.6547 36.8172 31.7328 36.7791 31.8109C36.7023 31.9679 36.6183 32.1212 36.5319 32.2731C36.357 32.5809 36.158 32.8744 35.946 33.1577C36.1229 32.9214 35.9385 33.1631 35.907 33.2017C35.8498 33.2716 35.7904 33.3398 35.7312 33.4079C35.6113 33.5455 35.485 33.6772 35.3566 33.807C35.1226 34.0435 34.8714 34.2626 34.6116 34.4702C34.8415 34.2864 34.6045 34.4728 34.564 34.5025C34.4923 34.555 34.4191 34.6052 34.3458 34.6553C34.2003 34.755 34.0501 34.8477 33.8987 34.9381C33.5991 35.1167 33.286 35.2719 32.9668 35.4118C33.2506 35.2873 32.9793 35.4038 32.9268 35.4243C32.8465 35.4557 32.7653 35.4845 32.6841 35.5135C32.5221 35.571 32.3575 35.6212 32.1924 35.6687C31.8909 35.7556 31.5835 35.8211 31.2744 35.874C31.2123 35.8846 30.9191 35.9242 31.2485 35.8813C31.164 35.8923 31.0792 35.9008 30.9943 35.9092C30.8248 35.9261 30.6545 35.9354 30.4843 35.9422C30.1438 35.9556 29.8027 35.9435 29.4632 35.9163C29.3782 35.9095 29.2935 35.9001 29.2088 35.8907C28.9143 35.8581 29.4756 35.931 29.1825 35.8866C29.0136 35.861 28.8459 35.8278 28.6788 35.7921C28.9519 36.0653 29.2249 36.3383 29.4981 36.6115C29.4683 36.4721 29.4414 36.3324 29.4172 36.192C29.4066 36.13 29.3666 35.8366 29.4097 36.1661C29.3987 36.0816 29.3901 35.9967 29.3816 35.9119C29.3475 35.5728 29.3388 35.2316 29.3455 34.8911C29.3488 34.7207 29.3599 34.5506 29.3734 34.3808C29.3801 34.2959 29.3894 34.2111 29.3987 34.1264C29.4311 33.8319 29.3584 34.3932 29.4026 34.1001C29.4535 33.7616 29.53 33.4275 29.6214 33.0979C29.7058 32.7936 29.8117 32.4957 29.9295 32.2028C29.8137 32.4905 29.9256 32.2165 29.9488 32.1651C29.9845 32.0859 30.0227 32.0078 30.0608 31.9297C30.1376 31.7726 30.2216 31.6193 30.3079 31.4675C30.4829 31.1597 30.6818 30.8661 30.8938 30.5829C30.7169 30.8192 30.9013 30.5776 30.9329 30.539C30.9899 30.469 31.0493 30.4008 31.1086 30.3328C31.2285 30.1951 31.3548 30.0634 31.4832 29.9337C31.7172 29.6971 31.9684 29.4781 32.2283 29.2704C31.9983 29.4541 32.2353 29.2677 32.2759 29.2381C32.3475 29.1857 32.4208 29.1354 32.4941 29.0853C32.6396 28.9856 32.7897 28.8928 32.9412 28.8024C33.2408 28.6239 33.5539 28.4687 33.8732 28.3287C33.5893 28.4532 33.8606 28.3368 33.9131 28.3162C33.9934 28.2849 34.0747 28.256 34.1559 28.2271C34.3178 28.1695 34.4824 28.1194 34.6475 28.0718C34.949 27.9849 35.2564 27.9194 35.5656 27.8665C35.6276 27.8559 35.9209 27.8163 35.5914 27.8593C35.676 27.8482 35.7608 27.8398 35.8456 27.8313C36.0152 27.8144 36.1854 27.8051 36.3557 27.7984C36.6962 27.7849 37.0373 27.797 37.3767 27.8242C37.4617 27.831 37.5464 27.8404 37.6312 27.8498C37.9256 27.8824 37.3644 27.8095 37.6574 27.8539C37.8264 27.8795 37.9941 27.9127 38.1612 27.9484C38.7861 28.082 39.4275 27.7719 39.6043 27.1291C39.7663 26.54 39.4104 25.8197 38.785 25.6859C35.6076 25.0068 32.3176 25.9059 29.9552 28.1463C27.5861 30.3931 26.6222 33.719 27.1694 36.8998C27.1887 37.0121 27.212 37.1237 27.2358 37.2352C27.3161 37.6109 27.6794 37.9742 28.0551 38.0545C31.2324 38.7336 34.5223 37.8346 36.8847 35.5942C39.2538 33.3474 40.2179 30.0215 39.6707 26.8406C39.6514 26.7284 39.6281 26.6167 39.6043 26.5053C39.4706 25.8799 38.7502 25.5239 38.1612 25.6859C37.5183 25.8628 37.2083 26.5042 37.3418 27.1291Z" fill="url(#paint1_linear)"/>
<path d="M27.5375 36.0936C25.4997 37.9256 23.4618 39.7575 21.424 41.5894C20.6438 42.2908 19.8636 42.9921 19.0834 43.6935C18.6077 44.1211 18.6494 44.9186 19.0834 45.3525C19.5533 45.8225 20.2673 45.7797 20.7425 45.3525C22.7803 43.5206 24.8182 41.6887 26.856 39.8568C27.6362 39.1554 28.4164 38.4541 29.1966 37.7527C29.6723 37.3251 29.6306 36.5276 29.1966 36.0936C28.7267 35.6237 28.0127 35.6666 27.5375 36.0936Z" fill="url(#paint2_linear)"/>
<path d="M0.221617 20.8072C-0.457569 23.9846 0.441606 27.2746 2.682 29.637C4.92876 32.0061 8.25458 32.97 11.4354 32.4228C11.5478 32.4034 11.6593 32.3801 11.7708 32.3564C12.1465 32.2761 12.5098 31.9128 12.5901 31.537C13.2693 28.3598 12.3702 25.0698 10.1299 22.7075C7.88298 20.3384 4.55722 19.3742 1.37625 19.9215C1.26391 19.9408 1.15235 19.964 1.04091 19.9878C0.415406 20.1216 0.0595011 20.8419 0.22156 21.4309C0.398423 22.0738 1.0399 22.3839 1.66468 22.2503C1.80405 22.2205 1.94377 22.1935 2.08421 22.1694C2.14622 22.1587 2.43955 22.1187 2.11002 22.1619C2.19454 22.1509 2.27939 22.1423 2.36419 22.1338C2.70328 22.0997 3.0445 22.0911 3.38504 22.0977C3.55542 22.1011 3.72552 22.112 3.89529 22.1256C3.98026 22.1324 4.06501 22.1417 4.14969 22.151C4.44415 22.1834 3.88284 22.1107 4.17595 22.1549C4.51437 22.2059 4.8486 22.2824 5.17819 22.3737C5.48248 22.4581 5.78045 22.564 6.07323 22.6818C5.78559 22.5661 6.05966 22.678 6.111 22.7011C6.19021 22.7369 6.26836 22.775 6.34646 22.8132C6.50349 22.8899 6.65678 22.9739 6.80867 23.0602C7.11642 23.2352 7.40998 23.4341 7.69321 23.6462C7.45697 23.4693 7.69857 23.6537 7.73723 23.6852C7.80717 23.7424 7.87533 23.8017 7.94342 23.861C8.08101 23.9809 8.21279 24.1073 8.34251 24.2356C8.57903 24.4697 8.79813 24.7209 9.00577 24.9807C8.82193 24.7507 9.00834 24.9877 9.03806 25.0282C9.09052 25.0999 9.14074 25.1732 9.1909 25.2464C9.29062 25.3919 9.38335 25.5421 9.47368 25.6935C9.65233 25.9931 9.80741 26.3062 9.9474 26.6254C9.82288 26.3417 9.93936 26.6129 9.95986 26.6654C9.9912 26.7457 10.0201 26.827 10.049 26.9082C10.1066 27.0702 10.1567 27.2347 10.2043 27.3998C10.2911 27.7013 10.3566 28.0087 10.4095 28.3178C10.4201 28.3799 10.4597 28.6732 10.4168 28.3437C10.4278 28.4283 10.4363 28.5131 10.4447 28.5979C10.4616 28.7675 10.4709 28.9377 10.4777 29.1079C10.4911 29.4484 10.4791 29.7895 10.4518 30.129C10.4449 30.214 10.4356 30.2987 10.4262 30.3834C10.3936 30.6779 10.4665 30.1166 10.4221 30.4097C10.3965 30.5786 10.3633 30.7464 10.3276 30.9134C10.6007 30.6403 10.8738 30.3673 11.1469 30.0941C11.0075 30.1239 10.8678 30.1509 10.7274 30.175C10.6654 30.1857 10.372 30.2257 10.7016 30.1825C10.617 30.1936 10.5322 30.2021 10.4473 30.2107C10.1082 30.2448 9.76702 30.2534 9.42648 30.2468C9.25615 30.2434 9.08605 30.2325 8.91623 30.219C8.83126 30.2122 8.74651 30.2029 8.66177 30.1936C8.36731 30.1612 8.92863 30.2339 8.63557 30.1897C8.29709 30.1388 7.96292 30.0623 7.63332 29.9709C7.32904 29.8866 7.03112 29.7807 6.73828 29.6628C7.02598 29.7786 6.75191 29.6667 6.70058 29.6436C6.62136 29.6078 6.54321 29.5697 6.46511 29.5315C6.30814 29.4547 6.15479 29.3707 6.00296 29.2844C5.69521 29.1095 5.40165 28.9105 5.11842 28.6985C5.35472 28.8754 5.11306 28.691 5.07445 28.6595C5.00451 28.6024 4.93636 28.543 4.86826 28.4837C4.73067 28.3638 4.59889 28.2375 4.46918 28.1092C4.23265 27.8752 4.01356 27.6239 3.80586 27.3641C3.98965 27.5941 3.80323 27.357 3.77357 27.3165C3.72111 27.2449 3.67089 27.1715 3.62073 27.0983C3.52101 26.9527 3.42828 26.8026 3.33795 26.6511C3.1593 26.3515 3.00416 26.0384 2.86417 25.7192C2.98863 26.003 2.87221 25.7317 2.85171 25.6792C2.82032 25.5989 2.79144 25.5177 2.76256 25.4364C2.70496 25.2745 2.65485 25.1099 2.60725 24.9448C2.52039 24.6433 2.45492 24.3359 2.40196 24.0268C2.39134 23.9647 2.35179 23.6714 2.39475 24.0009C2.38375 23.9164 2.37525 23.8316 2.36682 23.7467C2.34989 23.5771 2.34062 23.4069 2.33386 23.2367C2.3204 22.8962 2.33246 22.5551 2.35972 22.2156C2.36654 22.1306 2.37593 22.0459 2.38531 21.9611C2.41788 21.6667 2.34503 22.228 2.38944 21.9349C2.41503 21.766 2.44821 21.5983 2.48396 21.4312C2.61753 20.8064 2.30744 20.1649 1.66462 19.988C1.07571 19.8258 0.355353 20.1817 0.221617 20.8072Z" fill="url(#paint3_linear)"/>
<path d="M10.6294 32.0547C12.6673 33.8867 14.7051 35.7186 16.743 37.5505C17.5232 38.2519 18.3034 38.9532 19.0836 39.6545C19.5587 40.0817 20.2727 40.1245 20.7426 39.6545C21.1766 39.2205 21.2184 38.4231 20.7426 37.9955C18.7047 36.1635 16.6669 34.3316 14.6291 32.4997C13.8489 31.7983 13.0687 31.097 12.2885 30.3957C11.8134 29.9685 11.0994 29.9257 10.6295 30.3957C10.1954 30.8297 10.1536 31.6271 10.6294 32.0547Z" fill="url(#paint4_linear)"/>
<path d="M11.122 51.4888C13.4019 51.4888 15.6818 51.4888 17.9616 51.4888C21.1461 51.4888 24.3305 51.4888 27.515 51.4888C27.83 51.4888 28.1449 51.4888 28.4598 51.4888C29.0993 51.4888 29.633 50.9552 29.633 50.3157C29.633 49.6762 29.0993 49.1426 28.4598 49.1426C26.18 49.1426 23.9002 49.1426 21.6203 49.1426C18.4358 49.1426 15.2513 49.1426 12.0668 49.1426C11.7519 49.1426 11.4369 49.1426 11.122 49.1426C10.4825 49.1426 9.94885 49.6762 9.94885 50.3157C9.94885 50.9552 10.4826 51.4888 11.122 51.4888Z" fill="url(#paint5_linear)"/>
<path d="M17.1241 16.9455C17.7805 16.9455 18.4369 16.9455 19.0933 16.9455C20.0099 16.9455 20.8891 17.0036 21.7514 16.6216C22.535 16.2746 23.0888 15.5902 23.4027 14.8106C23.7334 13.9889 23.6371 13.074 23.2844 12.2808C22.9364 11.498 22.251 10.9444 21.4712 10.6317C20.9736 10.4322 20.4425 10.426 19.9156 10.426C19.7307 10.426 19.5458 10.426 19.3609 10.426C19.3164 10.426 19.2719 10.426 19.2274 10.426C19.1385 10.426 18.7808 10.3727 19.1417 10.4328C19.0183 10.4122 18.8985 10.374 18.781 10.3317C19.0889 10.4426 18.8649 10.3636 18.7937 10.3258C18.7289 10.2914 18.6681 10.2504 18.6074 10.2095C18.8737 10.389 18.6783 10.2636 18.6181 10.2095C18.5639 10.1608 18.5149 10.1066 18.4662 10.0525C18.2927 9.86035 18.619 10.2719 18.4737 10.0572C18.4326 9.99643 18.398 9.93152 18.3635 9.86688C18.3096 9.75331 18.3191 9.77929 18.3919 9.94476C18.3639 9.87549 18.3437 9.80342 18.3234 9.73169C18.3029 9.65874 18.2651 9.39808 18.31 9.74516C18.3 9.66801 18.2986 9.59002 18.2972 9.51237C18.2972 9.46031 18.2991 9.40836 18.303 9.35641C18.3181 9.08396 18.2517 9.63008 18.3057 9.36624C18.3208 9.29278 18.3438 9.22122 18.3667 9.14988C18.4472 8.89922 18.2489 9.39294 18.3636 9.15781C18.402 9.07916 18.6402 8.74599 18.4193 9.02793C18.5094 8.91302 18.6167 8.81308 18.7282 8.71956C18.478 8.92939 18.6647 8.77643 18.7302 8.73554C18.7926 8.69655 18.8589 8.66432 18.9249 8.63219C18.6296 8.77571 18.8455 8.66951 18.9221 8.64499C18.994 8.62197 19.068 8.60689 19.1417 8.59186C18.8036 8.66085 19.1521 8.59868 19.2731 8.59868C19.3722 8.59868 19.4714 8.59868 19.5705 8.59868C19.9424 8.59868 20.3142 8.59868 20.6861 8.59868C21.2692 8.59868 21.8524 8.59868 22.4356 8.59868C23.0751 8.59868 23.6088 8.06507 23.6088 7.42555C23.6088 6.78603 23.0751 6.25242 22.4356 6.25242C21.7792 6.25242 21.1228 6.25242 20.4664 6.25242C19.5498 6.25242 18.6706 6.19438 17.8083 6.57637C17.0247 6.92345 16.4709 7.60789 16.1571 8.38751C15.8264 9.2092 15.9227 10.1241 16.2753 10.9173C16.6233 11.7001 17.3087 12.2538 18.0885 12.5665C18.5861 12.766 19.1172 12.7721 19.644 12.7721C19.829 12.7721 20.0139 12.7721 20.1987 12.7721C20.2432 12.7721 20.2878 12.7721 20.3323 12.7721C20.4211 12.7721 20.7789 12.8253 20.4179 12.7653C20.5414 12.7858 20.6611 12.8241 20.7786 12.8664C20.4707 12.7555 20.6947 12.8346 20.7659 12.8723C20.8306 12.9066 20.8916 12.9477 20.9522 12.9886C20.6859 12.8091 20.8814 12.9344 20.9415 12.9885C20.9958 13.0373 21.0447 13.0915 21.0935 13.1456C21.267 13.3377 20.9407 12.9261 21.086 13.1409C21.1271 13.2016 21.1616 13.2666 21.1961 13.3312C21.2501 13.4448 21.2406 13.4188 21.1678 13.2533C21.1957 13.3226 21.216 13.3946 21.2363 13.4664C21.2568 13.5393 21.2946 13.8 21.2497 13.4529C21.2597 13.5301 21.2611 13.608 21.2625 13.6856C21.2625 13.7377 21.2606 13.7897 21.2567 13.8416C21.2416 14.1141 21.308 13.5679 21.254 13.8317C21.2389 13.9052 21.2159 13.9767 21.193 14.048C21.1125 14.2987 21.3108 13.805 21.1961 14.0401C21.1577 14.1187 20.9195 14.4519 21.1404 14.17C21.0503 14.2849 20.943 14.3848 20.8314 14.4783C21.0817 14.2686 20.895 14.4215 20.8295 14.4624C20.7671 14.5014 20.7008 14.5335 20.6347 14.5657C20.9301 14.4221 20.7142 14.5284 20.6375 14.5529C20.5657 14.5759 20.4917 14.591 20.4179 14.606C20.756 14.5371 20.4076 14.5992 20.2866 14.5992C20.1874 14.5992 20.0883 14.5992 19.9891 14.5992C19.6173 14.5992 19.2455 14.5992 18.8736 14.5992C18.2905 14.5992 17.7073 14.5992 17.1241 14.5992C16.4846 14.5992 15.9509 15.1329 15.9509 15.7724C15.9509 16.4118 16.4846 16.9455 17.1241 16.9455Z" fill="url(#paint6_linear)"/>
<path d="M20.9689 7.42558C20.9689 6.73008 20.9689 6.03464 20.9689 5.33914C20.9689 4.69968 20.4353 4.16602 19.7958 4.16602C19.1563 4.16602 18.6227 4.69968 18.6227 5.33914C18.6227 6.03464 18.6227 6.73008 18.6227 7.42558C18.6227 8.0651 19.1563 8.59871 19.7958 8.59871C20.4353 8.59871 20.9689 8.0651 20.9689 7.42558Z" fill="url(#paint7_linear)"/>
<path d="M20.9689 17.8592C20.9689 17.1637 20.9689 16.4681 20.9689 15.7725C20.9689 15.133 20.4353 14.5994 19.7958 14.5994C19.1563 14.5994 18.6227 15.133 18.6227 15.7725C18.6227 16.468 18.6227 17.1636 18.6227 17.8592C18.6227 18.4987 19.1563 19.0323 19.7958 19.0323C20.4353 19.0323 20.9689 18.4987 20.9689 17.8592Z" fill="url(#paint8_linear)"/>
<path d="M29.0437 11.5991C29.0421 11.9621 29.0237 12.3236 28.9879 12.6848C28.9791 12.7738 28.968 12.8626 28.9569 12.9514C28.9968 12.632 28.9562 12.9341 28.947 12.9918C28.9145 13.1954 28.8733 13.3975 28.8287 13.5987C28.7531 13.9401 28.6558 14.2763 28.5461 14.6081C28.4916 14.7727 28.431 14.9352 28.3685 15.0967C28.3482 15.1491 28.2332 15.4223 28.3553 15.1358C28.3103 15.2413 28.2623 15.3456 28.2138 15.4496C27.9128 16.0954 27.5379 16.7053 27.1121 17.276C26.9373 17.5104 27.2689 17.0787 27.0866 17.3072C27.0336 17.3736 26.979 17.4388 26.9243 17.5039C26.8152 17.6342 26.7013 17.7604 26.5859 17.8852C26.3293 18.1625 26.0547 18.4224 25.7701 18.6707C25.6954 18.7359 25.6188 18.799 25.5422 18.8621C25.514 18.8853 25.252 19.0872 25.469 18.9219C25.3146 19.0395 25.1555 19.1506 24.9949 19.2595C24.6456 19.4962 24.279 19.7066 23.9038 19.8993C23.7296 19.9887 23.5517 20.0707 23.3728 20.1502C23.6277 20.037 23.327 20.1681 23.2902 20.1828C23.1987 20.2194 23.1061 20.2533 23.0136 20.2873C22.6102 20.4353 22.1956 20.5518 21.7772 20.6483C21.5816 20.6935 21.3842 20.7301 21.1863 20.7639C21.1456 20.7708 20.8112 20.8179 21.0979 20.7804C20.997 20.7936 20.8958 20.8039 20.7945 20.8141C20.3604 20.8582 19.9265 20.8612 19.4907 20.8514C19.2999 20.8471 19.1094 20.8351 18.9192 20.8207C18.8248 20.8135 18.7307 20.8038 18.6366 20.794C18.585 20.7887 18.2682 20.7459 18.5751 20.7888C18.1763 20.7331 17.7818 20.6491 17.3922 20.5476C17.0377 20.4553 16.6896 20.3395 16.3471 20.2101C16.262 20.178 16.1778 20.1437 16.0936 20.1093C16.3704 20.2223 16.087 20.1039 16.041 20.0832C15.8486 19.9967 15.6602 19.9018 15.4735 19.8037C15.1548 19.6363 14.8474 19.4483 14.5481 19.2487C14.3988 19.1491 14.2535 19.0438 14.1096 18.9367C14.3285 19.0997 14.0693 18.9039 14.0396 18.88C13.9384 18.7987 13.8398 18.714 13.7416 18.6289C13.4472 18.3738 13.1709 18.0985 12.9067 17.8124C12.7765 17.6714 12.6522 17.5251 12.5299 17.3772C12.498 17.3385 12.3115 17.1002 12.4926 17.3353C12.4201 17.2412 12.3505 17.145 12.2812 17.0485C12.0729 16.7582 11.8833 16.4549 11.7059 16.1449C11.6168 15.9892 11.5338 15.8302 11.4529 15.6702C11.4123 15.59 11.3738 15.5088 11.3354 15.4275C11.3108 15.3755 11.1501 15.0076 11.2715 15.2957C10.9755 14.5937 10.7672 13.8568 10.632 13.1077C10.6155 13.0163 10.6014 12.9244 10.5874 12.8326C10.5394 12.5191 10.6179 13.0899 10.581 12.7739C10.5591 12.5868 10.5449 12.3989 10.5332 12.2108C10.5105 11.8478 10.5112 11.4835 10.5262 11.1203C10.5328 10.9623 10.5447 10.8045 10.5583 10.6469C10.5662 10.5553 10.6328 10.0367 10.5801 10.4141C10.6265 10.082 10.6927 9.75289 10.771 9.42687C10.8424 9.12962 10.9302 8.83657 11.0276 8.54691C11.0759 8.40312 11.1289 8.26095 11.1836 8.11939C11.2108 8.04884 11.2396 7.9789 11.2683 7.90896C11.1325 8.23922 11.2708 7.91013 11.3011 7.8436C11.5594 7.27508 11.8749 6.73348 12.2305 6.22066C12.3155 6.09815 12.4043 5.97838 12.4944 5.85956C12.2751 6.14871 12.5813 5.758 12.6376 5.69085C12.845 5.44399 13.0662 5.20903 13.2953 4.98234C13.5069 4.77302 13.7295 4.57504 13.958 4.38449C14.0152 4.33678 14.0734 4.2903 14.1316 4.24388C14.3388 4.07841 13.9183 4.40516 14.1303 4.24556C14.2694 4.14087 14.412 4.04121 14.5561 3.94362C15.0736 3.59302 15.6257 3.29499 16.1973 3.04282C16.4432 2.93434 15.9463 3.14561 16.1956 3.04422C16.2657 3.01567 16.3364 2.98869 16.4071 2.96171C16.549 2.90758 16.6926 2.85814 16.8368 2.81032C17.1516 2.7058 17.4724 2.61999 17.7958 2.54614C17.9465 2.51173 18.0983 2.4824 18.2503 2.45475C18.3268 2.44084 18.4035 2.42866 18.4802 2.41648C18.8291 2.36112 18.2392 2.44335 18.5912 2.40162C19.0376 2.34872 19.4879 2.33101 19.9371 2.33598C20.2489 2.33945 20.5604 2.36012 20.8706 2.39118C20.9474 2.39889 21.0239 2.40827 21.1004 2.4176C20.7498 2.37464 21.021 2.40771 21.0925 2.41866C21.2684 2.44548 21.4433 2.47877 21.6175 2.51458C22.2306 2.64061 22.8301 2.82881 23.4101 3.06321C23.5267 3.11148 23.5018 3.10086 23.3353 3.03143C23.4035 3.0607 23.471 3.09142 23.5385 3.12215C23.6508 3.17321 23.7616 3.22751 23.872 3.28253C24.0921 3.39225 24.307 3.51207 24.5186 3.6371C24.7296 3.76167 24.9348 3.89591 25.1365 4.03501C25.2372 4.10445 25.3358 4.17668 25.434 4.24958C25.5332 4.32477 25.5123 4.30812 25.3712 4.19969C25.4292 4.24461 25.4861 4.2907 25.543 4.33684C25.9223 4.64409 26.2765 4.98144 26.6093 5.33824C26.7757 5.51673 26.9341 5.70269 27.0877 5.89235C27.1183 5.93045 27.1486 5.96871 27.1787 6.0072C26.9702 5.7423 27.1315 5.9481 27.1726 6.00335C27.2455 6.10156 27.3157 6.20172 27.3852 6.30244C27.664 6.70678 27.9098 7.1333 28.1289 7.57266C28.1839 7.68316 28.2359 7.79511 28.287 7.90745C28.3073 7.95253 28.3273 7.99778 28.347 8.04314C28.2099 7.73014 28.3168 7.97247 28.343 8.03733C28.4363 8.26816 28.5188 8.50323 28.5951 8.74014C28.75 9.22034 28.8642 9.71306 28.9477 10.2104C28.9559 10.2608 28.9638 10.3112 28.9713 10.3617C29.0127 10.6332 28.9367 10.0812 28.9702 10.3545C28.9858 10.4825 28.9977 10.6108 29.0086 10.7392C29.0332 11.0252 29.0427 11.3122 29.0437 11.5991C29.046 12.2386 29.5756 12.7722 30.2168 12.7722C30.8545 12.7722 31.3923 12.2386 31.3899 11.5991C31.3797 8.82159 30.3796 6.19021 28.6073 4.06356C26.939 2.06159 24.5017 0.661932 21.9424 0.194245C19.0342 -0.337294 15.9852 0.226031 13.4964 1.83534C11.1942 3.32393 9.48623 5.59879 8.67113 8.21291C7.74799 11.1736 8.12903 14.4548 9.59287 17.1724C11.152 20.0669 14.0152 22.205 17.2176 22.9185C18.9564 23.3059 20.7643 23.2885 22.4982 22.8882C24.236 22.487 25.8209 21.6348 27.2013 20.5211C29.6552 18.5413 31.1037 15.5303 31.3584 12.4161C31.3806 12.1444 31.3888 11.8717 31.3899 11.5991C31.3926 10.9596 30.8541 10.426 30.2167 10.426C29.5753 10.426 29.0464 10.9596 29.0437 11.5991Z" fill="url(#paint9_linear)"/>
<defs>
<linearGradient id="paint0_linear" x1="21.0861" y1="20.8552" x2="18.4247" y2="20.8826" gradientUnits="userSpaceOnUse">
<stop stop-color="#E4B6B3"/>
<stop offset="1" stop-color="#98B1CF"/>
</linearGradient>
<linearGradient id="paint1_linear" x1="39.8199" y1="25.4644" x2="25.5566" y2="27.3802" gradientUnits="userSpaceOnUse">
<stop stop-color="#E4B6B3"/>
<stop offset="1" stop-color="#98B1CF"/>
</linearGradient>
<linearGradient id="paint2_linear" x1="29.5379" y1="35.7571" x2="17.5467" y2="37.5094" gradientUnits="userSpaceOnUse">
<stop stop-color="#E4B6B3"/>
<stop offset="1" stop-color="#98B1CF"/>
</linearGradient>
<linearGradient id="paint3_linear" x1="12.8117" y1="19.7722" x2="-1.46395" y2="21.6933" gradientUnits="userSpaceOnUse">
<stop stop-color="#E4B6B3"/>
<stop offset="1" stop-color="#98B1CF"/>
</linearGradient>
<linearGradient id="paint4_linear" x1="21.084" y1="30.0591" x2="9.09273" y2="31.8115" gradientUnits="userSpaceOnUse">
<stop stop-color="#E4B6B3"/>
<stop offset="1" stop-color="#98B1CF"/>
</linearGradient>
<linearGradient id="paint5_linear" x1="29.633" y1="49.1426" x2="19.8054" y2="60.2274" gradientUnits="userSpaceOnUse">
<stop stop-color="#E4B6B3"/>
<stop offset="1" stop-color="#98B1CF"/>
</linearGradient>
<linearGradient id="paint6_linear" x1="23.6088" y1="6.24927" x2="15.0011" y2="7.07755" gradientUnits="userSpaceOnUse">
<stop stop-color="#E4B6B3"/>
<stop offset="1" stop-color="#98B1CF"/>
</linearGradient>
<linearGradient id="paint7_linear" x1="20.9689" y1="4.16602" x2="18.3207" y2="4.35447" gradientUnits="userSpaceOnUse">
<stop stop-color="#E4B6B3"/>
<stop offset="1" stop-color="#98B1CF"/>
</linearGradient>
<linearGradient id="paint8_linear" x1="20.9689" y1="14.5994" x2="18.3206" y2="14.7878" gradientUnits="userSpaceOnUse">
<stop stop-color="#E4B6B3"/>
<stop offset="1" stop-color="#98B1CF"/>
</linearGradient>
<linearGradient id="paint9_linear" x1="31.3899" y1="1.28563e-06" x2="5.51755" y2="3.48142" gradientUnits="userSpaceOnUse">
<stop stop-color="#E4B6B3"/>
<stop offset="1" stop-color="#98B1CF"/>
</linearGradient>
</defs>
</svg>
