<svg width="50" height="48" viewBox="0 0 50 48" fill="none" xmlns="http://www.w3.org/2000/svg">
<path d="M43.2805 23.9224C43.3751 23.9401 43.4639 23.9638 43.5585 23.9874C43.5526 23.9874 43.7004 24.0406 43.6295 24.0111C43.5585 23.9815 43.6945 24.0466 43.6945 24.0466C43.9193 24.1767 43.9074 24.1708 44.0908 24.3541C44.0908 24.3541 44.1795 24.4665 44.1322 24.4014C44.0849 24.3364 44.1677 24.4546 44.1677 24.4546C44.215 24.5315 44.2623 24.6084 44.2978 24.6912C44.2445 24.5729 44.3333 24.8154 44.3392 24.8332C44.3569 24.9041 44.3747 24.9751 44.3865 25.0461C44.3628 24.9219 44.3865 25.1348 44.3865 25.1762C44.3865 25.2176 44.3687 25.4364 44.3865 25.3004C44.3747 25.3891 44.3451 25.4778 44.3214 25.5665C44.3155 25.5843 44.2682 25.7262 44.3155 25.6079C44.2919 25.6611 44.2623 25.7203 44.2327 25.7676C44.1381 25.9332 44.1558 25.9036 44.0198 26.0574C43.9133 26.1757 43.8069 26.294 43.7004 26.4063C42.7364 27.465 41.7606 28.5118 40.7788 29.5527C40.3116 30.0495 39.8443 30.5463 39.3771 31.0431C39.0459 31.392 39.0341 31.9539 39.3771 32.2969C39.7083 32.6281 40.2997 32.6459 40.6309 32.2969C41.66 31.2087 42.6891 30.1146 43.7063 29.0145C44.215 28.4645 44.7236 27.9145 45.2263 27.3585C45.9538 26.5483 46.3086 25.5665 46.0661 24.4842C45.8118 23.3546 44.8774 22.4379 43.7418 22.2131C43.2864 22.1244 42.7601 22.3433 42.6477 22.8341C42.559 23.2718 42.7896 23.8277 43.2805 23.9224Z" fill="url(#paint0_linear)"/>
<path d="M30.6359 39.9441C30.5886 38.6666 30.5354 37.3951 30.4881 36.1176C30.4822 35.9697 30.4703 35.816 30.4703 35.6681C30.4703 35.3014 30.4999 35.1536 30.5827 34.8046C30.6537 34.4853 30.7542 34.1777 30.8725 33.8761C30.9731 33.61 30.8015 34.018 30.9198 33.7637C30.9435 33.7105 30.9671 33.6573 30.9967 33.604C31.0736 33.4444 31.1564 33.2906 31.2451 33.1427C31.3161 33.0185 31.3989 32.8943 31.4758 32.776C31.5113 32.7287 31.5408 32.6814 31.5763 32.6341C31.6118 32.5868 31.6473 32.5395 31.6768 32.4922C31.6295 32.5572 31.6354 32.5454 31.7005 32.4685C31.8898 32.2438 32.0849 32.0309 32.2919 31.8298C32.5758 31.5577 32.7059 31.4572 32.9661 31.2797C33.4984 30.9131 34.0899 30.6469 34.6695 30.363C35.3851 30.0141 36.1007 29.6652 36.8163 29.3103C37.5083 28.9732 38.1115 28.6183 38.703 28.092C39.1288 27.7135 39.5073 27.264 39.8976 26.85C40.5068 26.1935 41.116 25.5429 41.7192 24.8865C41.8848 24.709 42.0445 24.5316 42.2101 24.3601C42.216 24.3542 42.2278 24.3423 42.2338 24.3364C42.2988 24.2714 42.3639 24.2004 42.4348 24.1472C42.3284 24.23 42.5295 24.0939 42.5531 24.0821C42.559 24.0821 42.8193 23.9638 42.6714 24.023C42.772 23.9875 42.8725 23.9579 42.973 23.9402C43.1209 23.9106 42.7838 23.9283 43.0499 23.9343C43.0854 23.9343 43.4107 23.952 43.2747 23.9343C43.736 24.0052 44.2446 23.8219 44.3688 23.3133C44.6409 22.1422 44.9247 20.9712 45.1909 19.8002C45.3151 19.2443 45.2559 18.7356 45.2204 18.1738C45.1672 17.4286 45.1199 16.6893 45.0667 15.9441C45.043 15.607 45.0253 15.264 45.0253 14.921C45.0253 14.7613 45.0253 14.6016 45.0371 14.4419C45.0371 14.4419 45.0785 14.1403 45.0489 14.3059C45.0608 14.2467 45.0726 14.1817 45.0903 14.1225C45.1613 13.815 45.2796 13.5725 45.4452 13.3833C45.5398 13.2709 45.6463 13.1644 45.7646 13.0698C45.6049 13.194 46.0425 12.9338 45.9361 12.9752C45.8119 13.0284 46.0366 12.9456 46.0366 12.9456C46.1076 12.9279 46.1845 12.9101 46.2614 12.8983C46.22 12.9042 46.0898 12.9101 46.2673 12.9042C46.3737 12.8983 46.4743 12.8924 46.5807 12.8924C46.6162 12.8924 46.8173 12.8983 46.6635 12.8806C46.7522 12.8924 46.8409 12.916 46.9237 12.9456C46.7641 12.8924 47.1958 13.123 47.0657 13.0166C47.113 13.0521 47.1485 13.0935 47.1899 13.1349C47.3437 13.2709 47.1603 13.0402 47.2668 13.2236C47.2549 13.2058 47.3851 13.4542 47.3437 13.3478C47.3259 13.3005 47.3969 13.537 47.4028 13.5784C47.3732 13.4424 47.4205 13.7381 47.4265 13.7795C47.456 14.0279 47.4856 14.2763 47.5152 14.5247C47.6039 15.2817 47.6985 16.0447 47.7872 16.8017C47.9173 17.9136 48.0948 19.0254 48.1835 20.1373C48.219 20.5927 48.1953 21.0599 48.2012 21.5153C48.2071 22.3078 48.2131 23.1004 48.219 23.8988C48.2249 24.3956 48.2426 24.8924 48.2249 25.3892C48.219 25.5488 48.213 25.7085 48.1953 25.8682C48.1953 25.8623 48.1598 26.1758 48.1835 26.0102C48.1776 26.0752 48.1657 26.1344 48.1539 26.1994C48.0948 26.5424 48.012 26.8795 47.9114 27.2107C47.7163 27.8317 47.4797 28.3167 47.0834 28.914C46.7818 29.3694 46.356 29.813 45.9183 30.2566C45.4156 30.7652 44.9129 31.2738 44.4102 31.7825C43.5822 32.6164 42.7306 33.4325 41.9262 34.2901C41.4294 34.8224 41.0568 35.5025 40.9208 36.224C40.8617 36.5375 40.8439 36.851 40.8203 37.1703C40.7729 37.9155 40.7256 38.6607 40.6783 39.4059C40.6665 39.5833 40.6547 39.7608 40.6428 39.9382C40.6133 40.3995 41.0746 40.8431 41.53 40.8253C42.0386 40.8017 42.3875 40.435 42.4171 39.9382C42.4526 39.3408 42.494 38.7494 42.5295 38.1521C42.5531 37.7972 42.5768 37.4365 42.6004 37.0816C42.6064 37.0047 42.6123 36.9278 42.6123 36.851C42.6123 36.8036 42.63 36.6558 42.6123 36.7859C42.6359 36.6026 42.6951 36.4251 42.7424 36.2477C42.7897 36.088 42.772 36.159 42.7542 36.2063C42.7897 36.1235 42.8311 36.0407 42.8784 35.9579C42.9139 35.8928 42.9553 35.8278 42.9967 35.7627C43.0144 35.7391 43.1268 35.5853 43.0499 35.6799C43.1209 35.5912 43.1978 35.5143 43.2747 35.4375C43.3989 35.3073 43.529 35.1772 43.6591 35.053C44.1855 34.5207 44.7118 33.9885 45.2441 33.4562C46.1372 32.5513 47.1012 31.6819 47.9292 30.7179C48.8873 29.5883 49.5792 28.228 49.8454 26.7672C49.9873 25.9983 50.0051 25.2413 49.9991 24.4665C49.9873 23.0885 49.9873 21.7046 49.9696 20.3266C49.9637 20.0309 49.9163 19.7352 49.8809 19.4454C49.7922 18.7238 49.7094 17.9964 49.6206 17.2748C49.4728 16.0328 49.3249 14.7849 49.1771 13.5429C49.1002 12.8865 48.8873 12.2832 48.3905 11.8219C47.7813 11.2601 47.0006 11.059 46.1904 11.1359C45.4393 11.2068 44.7828 11.4907 44.2623 12.0526C43.665 12.6972 43.3634 13.4838 43.2806 14.3473C43.2037 15.1161 43.2983 15.9146 43.3515 16.6893C43.3989 17.4227 43.4521 18.1561 43.4994 18.8953C43.5053 18.9545 43.5112 19.0136 43.5112 19.0728C43.5112 19.1023 43.4817 19.3448 43.5053 19.2443C43.4994 19.262 43.4935 19.2798 43.4935 19.2975C43.4403 19.5518 43.3752 19.8061 43.3161 20.0545C43.1386 20.8234 42.9553 21.5922 42.7779 22.3552C42.7424 22.5148 42.701 22.6745 42.6655 22.8342C43.0322 22.6272 43.3929 22.4202 43.7596 22.2132C42.8488 22.0713 41.9913 22.2546 41.2638 22.8342C41.0864 22.9762 40.9385 23.1358 40.7907 23.2955C40.2761 23.8515 39.7557 24.4074 39.2412 24.9633C38.8094 25.4306 38.3777 25.8919 37.9459 26.3591C37.4491 26.8914 36.9937 27.2581 36.3491 27.5774C35.1426 28.1689 33.9065 28.7189 32.7237 29.3576C31.4876 30.02 30.4289 31.0432 29.7251 32.2556C29.1219 33.2906 28.6842 34.5621 28.7138 35.7686C28.7493 37.1644 28.8203 38.5602 28.8735 39.95C28.8912 40.4113 29.2698 40.8608 29.7606 40.8371C30.2101 40.8135 30.6537 40.4409 30.6359 39.9441Z" fill="url(#paint1_linear)"/>
<path d="M43.4343 40.8371C43.4343 42.3985 43.4402 43.9598 43.4402 45.5212C43.4402 45.7105 43.4638 45.9234 43.4343 46.1126C43.4579 45.9529 43.3633 46.1777 43.4343 46.0416C43.3929 46.1185 43.3869 46.0712 43.4106 46.0771C43.4165 46.0653 43.4224 46.0594 43.4283 46.0476C43.3633 46.1067 43.3515 46.1185 43.3988 46.0771C43.4047 46.0712 43.4165 46.0594 43.4224 46.0535C43.3988 46.0653 43.3751 46.0771 43.3515 46.089C43.3633 46.1008 43.4697 46.0121 43.3751 46.0653C43.2982 46.1067 43.3751 46.0594 43.4106 46.0594C43.3869 46.0594 43.3633 46.0594 43.3396 46.0594C42.9493 46.0239 42.5412 46.0594 42.1509 46.0594C40.3943 46.0594 38.6437 46.0653 36.8872 46.0653C34.9178 46.0653 32.9424 46.0712 30.973 46.0712C30.0267 46.0712 29.0745 46.083 28.1282 46.0771L28.0454 46.0712C28.14 46.083 28.0868 46.0771 28.0868 46.0594C28.075 46.0535 28.0632 46.0535 28.0513 46.0476C28.1341 46.0771 28.146 46.083 28.0868 46.0476C28.0868 46.0416 28.0513 46.0062 28.1164 46.0653C28.0572 46.0121 28.0986 46.0121 28.0868 46.0357C28.0927 46.0417 28.1046 46.0535 28.1105 46.0594C28.0986 46.0357 28.0868 46.0121 28.075 45.9884C28.0632 46.0002 28.1519 46.1126 28.0986 46.0121C28.0691 45.9648 28.1046 45.9352 28.1046 46.0476C28.1046 45.9943 28.1046 45.9411 28.1046 45.8879C28.1046 45.5508 28.1046 45.2196 28.1046 44.8825C28.1046 43.8889 28.1046 42.8953 28.0986 41.9017C28.0986 41.5882 28.0986 41.2807 28.0986 40.9672C28.0986 40.9377 28.0986 40.9081 28.0986 40.8785C28.0986 40.843 28.1164 40.7248 28.0986 40.8135C28.0809 40.9258 28.1164 40.778 28.1223 40.778C28.1164 40.8016 28.1046 40.8253 28.0986 40.849C28.1105 40.8253 28.1282 40.8075 28.14 40.7839C28.1341 40.7957 28.1282 40.8016 28.1223 40.8135C28.0927 40.8549 28.0986 40.8549 28.1341 40.8194C28.146 40.8253 28.1814 40.7957 28.1105 40.843C28.1696 40.8016 28.1519 40.7957 28.146 40.8253C28.1341 40.8312 28.1223 40.8371 28.1164 40.843C28.14 40.8371 28.1696 40.8312 28.1933 40.8253C28.2051 40.8549 28.075 40.8371 28.146 40.843C28.696 40.8726 29.2637 40.843 29.8138 40.843C31.1859 40.843 32.5639 40.8371 33.936 40.8371C35.8818 40.8371 37.8276 40.8312 39.7793 40.8312C40.8616 40.8312 41.938 40.8312 43.0203 40.8253C43.1504 40.8253 43.2746 40.8253 43.4047 40.8253C43.4993 40.8253 43.4875 40.8076 43.4106 40.8253C43.4934 40.8016 43.452 40.8904 43.452 40.8371C43.4402 40.8312 43.4283 40.8312 43.4165 40.8253C43.4402 40.8371 43.4579 40.8549 43.4816 40.8667C43.4697 40.8608 43.4638 40.8549 43.452 40.849C43.4106 40.8194 43.4106 40.8253 43.4461 40.8608C43.452 40.8726 43.4638 40.8785 43.4697 40.8904C43.4165 40.8253 43.4047 40.8194 43.4402 40.8726C43.4461 40.8667 43.4638 40.914 43.4343 40.8371C43.452 40.8785 43.4402 40.985 43.4343 40.8371C43.4579 41.2984 43.8246 41.7479 44.3214 41.7243C44.7827 41.7006 45.2322 41.3339 45.2085 40.8371C45.1612 39.8258 44.3983 39.0569 43.3751 39.0451C42.9315 39.0392 42.488 39.0451 42.0444 39.0451C41.6896 39.0451 41.3347 39.0451 40.9798 39.0451C39.1878 39.0451 37.4017 39.051 35.6097 39.051C33.8295 39.051 32.0494 39.0569 30.2692 39.0569C29.8907 39.0569 29.5181 39.0569 29.1395 39.0569C28.6782 39.0569 28.1874 39.0096 27.732 39.1043C26.8921 39.2758 26.348 40.0683 26.3362 40.8963C26.3125 42.5582 26.3421 44.2201 26.3421 45.882C26.3421 46.4852 26.5255 47.0471 27.0163 47.4374C27.3712 47.7154 27.7852 47.8396 28.2288 47.8396C28.6723 47.8396 29.1159 47.8396 29.5595 47.8396C31.4343 47.8396 33.315 47.8337 35.1898 47.8337C37.1947 47.8337 39.1997 47.8278 41.2105 47.8278C41.8138 47.8278 42.417 47.8278 43.0203 47.8278C43.1445 47.8278 43.2687 47.8278 43.3929 47.8278C44.1617 47.81 44.8182 47.3783 45.0962 46.6567C45.2204 46.3314 45.2144 46.0002 45.2144 45.6631C45.2144 45.2373 45.2144 44.8115 45.2144 44.3857C45.2144 43.3921 45.2144 42.3926 45.2085 41.399C45.2085 41.2097 45.2085 41.0264 45.2085 40.8371C45.2085 40.3758 44.8004 39.9263 44.3214 39.95C43.8423 39.9677 43.4343 40.3403 43.4343 40.8371Z" fill="url(#paint2_linear)"/>
<path d="M36.2367 3.58928C36.3668 3.71939 36.4969 3.86133 36.6152 4.00327C36.6802 4.08016 36.7453 4.15705 36.8044 4.23393C36.7216 4.12747 36.8695 4.32264 36.8931 4.35813C37.1061 4.66567 37.2953 4.99095 37.4609 5.32806C37.4846 5.37538 37.5082 5.42861 37.5319 5.47592C37.5378 5.48183 37.591 5.60603 37.5555 5.52323C37.526 5.45818 37.6028 5.64743 37.6206 5.68292C37.6856 5.86035 37.7507 6.04369 37.8039 6.22703C37.8512 6.39854 37.8986 6.57005 37.934 6.74157C37.9518 6.83619 37.9695 6.92491 37.9873 7.01954C37.9991 7.07276 38.0287 7.31525 38.005 7.14373C38.0464 7.5045 38.0642 7.87119 38.0523 8.23787C38.0464 8.4153 38.0346 8.58681 38.0168 8.76423C37.9991 8.94166 38.0109 8.80564 38.0168 8.77015C38.0109 8.81155 38.005 8.85295 37.9991 8.88843C37.9814 8.98306 37.9695 9.07769 37.9518 9.1664C37.8749 9.539 37.7744 9.90568 37.6383 10.2605C37.6088 10.3374 37.5792 10.4143 37.5496 10.4912C37.6088 10.3492 37.5082 10.5799 37.4905 10.6154C37.4077 10.7869 37.319 10.9584 37.2184 11.1299C37.1297 11.2837 37.0292 11.4375 36.9286 11.5912C36.8813 11.6622 36.834 11.7273 36.7808 11.7982C36.7926 11.7864 36.8517 11.7095 36.7926 11.7864C36.7512 11.8396 36.7039 11.8988 36.6566 11.952C36.5265 12.1058 36.3845 12.2595 36.2426 12.4015C36.1775 12.4665 36.1065 12.5375 36.0415 12.6026C35.6807 12.9633 35.314 13.33 34.9533 13.6908C33.6462 14.9978 32.3333 16.3108 31.0262 17.6178C29.6009 19.0432 28.1756 20.4685 26.7502 21.8938C25.9814 22.6627 25.1534 23.4079 24.4259 24.2181C24.4141 24.23 24.4023 24.2418 24.3904 24.2536C24.8104 24.2536 25.2244 24.2536 25.6443 24.2536C24.6093 23.2186 23.5684 22.1777 22.5334 21.1427C20.6172 19.2265 18.7009 17.3103 16.7847 15.3941C15.7261 14.3354 14.626 13.3064 13.6029 12.2063C13.526 12.1235 13.4491 12.0348 13.3781 11.952C13.3604 11.9284 13.1593 11.674 13.2539 11.7982C13.0943 11.5853 12.9464 11.3665 12.8163 11.1358C12.698 10.9348 12.5975 10.7218 12.491 10.5089C12.4141 10.3552 12.4673 10.4616 12.4851 10.4971C12.4614 10.432 12.4319 10.3729 12.4082 10.3078C12.3609 10.1777 12.3136 10.0535 12.2722 9.92342C12.2012 9.7046 12.1421 9.47986 12.0947 9.25512C12.0711 9.14866 12.0533 9.0422 12.0356 8.93575C12.0356 8.94166 12.0001 8.68144 12.0179 8.81155C12.0297 8.92983 12.006 8.71101 12.006 8.68735C11.9587 8.20238 11.9705 7.71742 12.0119 7.23245C12.0297 7.05502 12.0179 7.19105 12.0119 7.22653C12.0238 7.16148 12.0297 7.09051 12.0415 7.02545C12.0593 6.90717 12.0829 6.78297 12.1125 6.66468C12.1657 6.42811 12.2308 6.19154 12.3077 5.96089C12.3431 5.86035 12.3786 5.75389 12.42 5.65335C12.4141 5.66518 12.5206 5.41678 12.4673 5.52915C12.4259 5.62378 12.4969 5.47001 12.5087 5.44635C12.6211 5.20978 12.7394 4.97912 12.8754 4.75438C12.9346 4.65976 12.9937 4.56513 13.0529 4.4705C13.0824 4.42319 13.1179 4.37587 13.1475 4.33447C13.1357 4.3463 13.3013 4.12747 13.2303 4.2221C13.1711 4.29899 13.2776 4.16296 13.2894 4.14522C13.3367 4.09199 13.3781 4.03285 13.4255 3.97962C13.5201 3.87316 13.6147 3.76671 13.7152 3.66025C14.1292 3.23442 14.4368 2.99194 14.9336 2.69032C15.1642 2.54837 15.4008 2.43009 15.6433 2.3118C15.803 2.23492 15.7261 2.2704 15.6906 2.28815C15.7616 2.25858 15.8385 2.229 15.9094 2.20535C16.0573 2.15212 16.2051 2.09889 16.353 2.05749C16.6073 1.98061 16.8616 1.92146 17.1218 1.87415C17.1514 1.86824 17.4885 1.82092 17.3466 1.83867C17.5004 1.82092 17.6541 1.80909 17.8079 1.79727C18.0859 1.78544 18.3638 1.78544 18.6418 1.80318C18.766 1.80909 18.8902 1.82092 19.0085 1.83867C18.8725 1.82092 19.0262 1.83866 19.0499 1.84458C19.1386 1.86232 19.2332 1.87415 19.3219 1.89189C19.594 1.94512 19.8661 2.01609 20.1322 2.09889C20.2505 2.13438 20.3688 2.17578 20.487 2.22309C20.5462 2.24675 20.6053 2.2704 20.6645 2.29406C20.5462 2.24675 20.8005 2.35912 20.7946 2.35912C21.593 2.73763 22.1312 3.16345 22.7404 3.76671C23.1839 4.21027 23.6216 4.64793 24.0652 5.0915C24.1716 5.19795 24.2781 5.30441 24.3904 5.41678C24.7276 5.75389 25.3072 5.75389 25.6443 5.41678C26.0228 5.03827 26.3954 4.66567 26.7739 4.28716C26.975 4.08607 27.176 3.88499 27.3771 3.68391C27.4244 3.63659 27.4658 3.59519 27.5132 3.54788C27.6078 3.45917 27.7024 3.37045 27.797 3.28765C27.8503 3.24034 27.9035 3.19303 27.9626 3.15163C27.9863 3.13388 28.1815 2.98603 28.0514 3.08066C28.4654 2.77311 28.9089 2.5188 29.3761 2.29998C29.5181 2.23492 29.1869 2.37095 29.4294 2.27632C29.4826 2.25858 29.5299 2.23492 29.5831 2.21718C29.7133 2.16986 29.8375 2.12255 29.9676 2.08706C30.216 2.01018 30.4644 1.95104 30.7187 1.89781C30.837 1.87415 30.9612 1.85641 31.0794 1.83867C30.8961 1.86232 31.2332 1.82684 31.2864 1.82092C31.5408 1.80318 31.801 1.79135 32.0553 1.80318C32.1913 1.80909 32.3273 1.81501 32.4575 1.82684C32.5107 1.83275 32.5639 1.83866 32.6171 1.84458C32.8774 1.86824 32.5048 1.82684 32.6645 1.85049C32.9188 1.88598 33.1731 1.93921 33.4215 2.00426C33.7113 2.08115 33.9952 2.17578 34.2731 2.28223C34.3027 2.29406 34.4269 2.3532 34.2909 2.28815C34.3678 2.32363 34.4387 2.3532 34.5156 2.3946C34.6398 2.45375 34.764 2.5188 34.8823 2.58386C35.1484 2.73171 35.4087 2.90323 35.6571 3.08657C35.5447 3.00377 35.6571 3.08657 35.6807 3.10431C35.7458 3.15754 35.8108 3.21077 35.8759 3.26991C35.9883 3.35271 36.1125 3.47099 36.2367 3.58928C36.5797 3.92639 37.1534 3.9323 37.4905 3.58928C37.8276 3.25217 37.8335 2.67257 37.4905 2.33546C35.8049 0.667646 33.3978 -0.219489 31.0262 0.0466518C29.8375 0.182679 28.6842 0.537533 27.661 1.17036C26.9572 1.6021 26.3599 2.15803 25.7744 2.74354C25.3072 3.21077 24.8399 3.67799 24.3727 4.14522C24.7926 4.14522 25.2066 4.14522 25.6265 4.14522C24.8281 3.34088 24.0592 2.45375 23.1662 1.74995C21.179 0.188594 18.5531 -0.379173 16.1046 0.271392C13.8276 0.874645 11.8463 2.53063 10.9001 4.68933C10.0366 6.66468 9.94197 8.94758 10.764 10.9584C11.2313 12.0999 11.941 13.058 12.8045 13.9214C13.3959 14.5129 13.9932 15.1102 14.5846 15.7016C16.5186 17.6356 18.4526 19.5695 20.3865 21.5035C21.6995 22.8165 22.9888 24.1531 24.3254 25.4424C24.349 25.4601 24.3668 25.4838 24.3845 25.5015C24.7216 25.8386 25.3012 25.8386 25.6383 25.5015C26.3007 24.8391 26.9572 24.1826 27.6196 23.5203C29.0568 22.0831 30.488 20.6518 31.9252 19.2147C33.2914 17.8485 34.6576 16.4823 36.0237 15.1161C36.8754 14.2645 37.8039 13.4424 38.4841 12.4429C40.3116 9.76374 40.2761 5.98454 38.3658 3.35862C38.1056 2.99786 37.8217 2.65483 37.5082 2.33546C37.1711 1.99244 36.5915 1.99835 36.2544 2.33546C35.8936 2.67849 35.8995 3.24625 36.2367 3.58928Z" fill="url(#paint3_linear)"/>
<path d="M6.26324 22.2131C5.19276 22.426 4.3352 23.2363 4.004 24.2654C3.67872 25.2708 3.93303 26.3472 4.59543 27.1515C5.58902 28.3521 6.71272 29.464 7.77729 30.5995C8.30957 31.1673 8.84185 31.735 9.38004 32.2969C9.71124 32.6458 10.3027 32.6281 10.6339 32.2969C10.9828 31.948 10.9651 31.392 10.6339 31.0431C9.72307 30.0791 8.81228 29.115 7.91331 28.1451C7.43426 27.6306 6.96112 27.116 6.48207 26.6015C6.28098 26.3827 6.06807 26.1638 5.87882 25.9332C5.7487 25.7735 5.63633 25.4364 5.63042 25.2235C5.63042 25.1762 5.65407 24.9218 5.63042 25.052C5.64225 24.9751 5.65999 24.9041 5.68365 24.8272C5.69547 24.7858 5.7073 24.7385 5.72505 24.6971C5.77236 24.5552 5.67773 24.7858 5.74279 24.6557C5.7901 24.5611 5.84333 24.4724 5.90247 24.3836C5.83742 24.4783 5.99119 24.289 6.02076 24.2594C6.05624 24.2299 6.08581 24.1944 6.1213 24.1648C6.05033 24.224 6.13904 24.153 6.1627 24.1412C6.21593 24.1116 6.26916 24.0761 6.32238 24.0465C6.35195 24.0288 6.4525 23.9874 6.36378 24.0229C6.48207 23.9756 6.60627 23.9519 6.73047 23.9223C7.2036 23.8277 7.46974 23.2659 7.35146 22.8282C7.21543 22.3432 6.73047 22.1185 6.26324 22.2131Z" fill="url(#paint4_linear)"/>
<path d="M21.1494 39.944C21.2026 38.637 21.2499 37.324 21.3032 36.017C21.3978 33.5803 20.0493 31.2856 18.1213 29.8721C17.5535 29.4522 16.9148 29.1624 16.282 28.8489C15.5486 28.4941 14.8212 28.1333 14.0878 27.7784C13.3722 27.4295 12.8221 27.122 12.2662 26.5601C11.8936 26.1816 11.5447 25.7853 11.1839 25.4009C10.5747 24.7444 9.96557 24.0939 9.35641 23.4374C9.21446 23.2836 9.07844 23.1239 8.93058 22.982C8.1913 22.29 7.24502 22.0594 6.25735 22.2131C6.62403 22.4201 6.9848 22.6271 7.35148 22.8341C7.07351 21.6513 6.80146 20.4625 6.51757 19.2797C6.51166 19.2678 6.51166 19.2501 6.50574 19.2383C6.52349 19.327 6.49983 19.0786 6.49983 19.0668C6.49983 19.0017 6.50574 18.9367 6.51166 18.8716C6.53532 18.5463 6.55897 18.221 6.57671 17.8898C6.62403 17.192 6.67726 16.4882 6.71866 15.7903C6.74823 15.2757 6.7778 14.7553 6.71866 14.2467C6.62403 13.3891 6.29875 12.5966 5.68367 11.9756C4.63093 10.911 2.73838 10.7632 1.62058 11.81C1.12379 12.2772 0.916791 12.8805 0.833991 13.537C0.816249 13.6848 0.798506 13.8268 0.780763 13.9746C0.697964 14.6666 0.615164 15.3526 0.532365 16.0446C0.372681 17.3812 0.201168 18.7178 0.0533119 20.0544C0.0178265 20.3738 0.0355691 20.705 0.0296549 21.0303C0.0237407 21.8228 0.0178267 22.6153 0.0119125 23.4078C0.00599822 23.9638 8.37168e-05 24.5197 8.37168e-05 25.0756C-0.00583052 26.4182 0.30171 27.737 0.893134 28.9435C1.59693 30.3866 2.77978 31.4571 3.89165 32.5808C4.83793 33.533 5.78421 34.4793 6.72457 35.4374C7.20362 35.9283 7.36331 36.431 7.40471 37.1052C7.45202 37.8622 7.49934 38.6192 7.54665 39.3763C7.55848 39.5596 7.57031 39.7429 7.58213 39.9322C7.61171 40.3935 7.96656 40.843 8.46927 40.8193C8.92467 40.8016 9.38598 40.429 9.35641 39.9322C9.32092 39.3585 9.28543 38.7789 9.24404 38.2052C9.20264 37.5369 9.20264 36.839 9.07252 36.1767C8.7709 34.6863 7.44019 33.6454 6.41703 32.6163C5.52398 31.7114 4.62502 30.8124 3.73197 29.9076C2.96312 29.1269 2.39535 28.1983 2.07598 27.1693C1.97544 26.8499 1.89855 26.5305 1.84533 26.1993C1.80393 25.9687 1.77435 25.6434 1.76844 25.2945C1.76844 25.1289 1.76844 24.9573 1.76844 24.7917C1.78027 23.3842 1.7921 21.9825 1.79801 20.5749C1.80393 19.7173 1.9577 18.8598 2.05824 18.0081C2.22975 16.5946 2.39535 15.1811 2.56686 13.7676C2.57278 13.7026 2.57869 13.6434 2.59052 13.5784C2.60826 13.4364 2.54321 13.6966 2.60826 13.4896C2.73838 13.0697 3.01634 12.8805 3.45991 12.8864C3.54863 12.8864 3.63734 12.8982 3.72605 12.8982C3.76154 12.8982 3.89757 12.9278 3.73197 12.8923C3.85617 12.916 3.97445 12.9455 4.09865 12.9869C3.90348 12.9219 4.11639 13.0047 4.15188 13.0224C4.14596 13.0165 4.35296 13.1525 4.25242 13.0816C4.15188 13.0047 4.35888 13.1821 4.35296 13.1703C4.41802 13.2353 4.48308 13.3004 4.54222 13.3714C4.70782 13.5665 4.8261 13.8149 4.89707 14.1106C4.9503 14.3354 4.96804 14.6547 4.96213 15.0155C4.93847 16.3462 4.77879 17.671 4.71373 19.0017C4.69007 19.534 4.8675 20.084 4.98579 20.5986C5.16321 21.3497 5.33472 22.1008 5.51215 22.846C5.54764 22.9997 5.58312 23.1535 5.61861 23.3073C5.73689 23.81 6.25143 23.9992 6.71274 23.9283C6.54714 23.9519 6.83694 23.9283 6.84285 23.9283C6.82511 23.9283 7.11491 23.946 6.99663 23.9342C6.87834 23.9164 7.16222 23.9756 7.14448 23.9697C7.14448 23.9697 7.42245 24.0643 7.27459 24.0052C7.32782 24.0288 7.38105 24.0584 7.43428 24.088C7.42836 24.088 7.67676 24.2476 7.55256 24.153C7.62945 24.2122 7.69451 24.2831 7.75956 24.3482C7.88376 24.4783 8.00205 24.6084 8.12625 24.7385C8.65261 25.3063 9.17898 25.8681 9.70535 26.4359C10.6339 27.4354 11.5269 28.5118 12.7807 29.121C13.9281 29.6828 15.0873 30.2328 16.2287 30.8065C16.4949 30.9426 16.7492 31.0904 16.9917 31.256C17.0627 31.3033 17.1336 31.3565 17.2046 31.4098C17.4353 31.5754 17.0863 31.3033 17.3051 31.4867C17.4412 31.599 17.5713 31.7114 17.7014 31.8356C17.9143 32.0367 18.1036 32.2496 18.2928 32.4743C18.4762 32.6873 18.2041 32.3442 18.3697 32.569C18.4052 32.6163 18.4407 32.6636 18.4702 32.7109C18.5708 32.8528 18.6654 33.0007 18.7541 33.1545C18.8369 33.2905 18.9138 33.4324 18.9848 33.5803C19.0144 33.6454 19.0498 33.7104 19.0794 33.7755C19.1977 34.0298 19.0262 33.6217 19.1267 33.8878C19.2391 34.1895 19.3396 34.497 19.4165 34.8164C19.4993 35.1771 19.5348 35.4315 19.523 35.8277C19.4816 37.2057 19.4165 38.5837 19.3633 39.9558C19.3456 40.4172 19.7832 40.8666 20.2504 40.843C20.7591 40.8134 21.1316 40.4408 21.1494 39.944Z" fill="url(#paint5_linear)"/>
<path d="M4.8023 40.8371C4.8023 42.4517 4.79639 44.0663 4.79639 45.675C4.79639 46.089 4.80822 46.4852 5.00338 46.8638C5.31684 47.4729 5.94966 47.8041 6.62389 47.8219C7.0024 47.8337 7.38682 47.8219 7.76533 47.8219C9.58692 47.8219 11.4085 47.8278 13.2301 47.8278C15.2705 47.8278 17.3109 47.8337 19.3513 47.8337C20.0078 47.8337 20.6643 47.8337 21.3148 47.8337C21.9595 47.8337 22.5568 47.8337 23.0832 47.3605C23.8166 46.7041 23.6687 45.6572 23.6687 44.7701C23.6687 43.747 23.6687 42.7238 23.6746 41.7006C23.6746 41.4286 23.6805 41.1565 23.6746 40.8785C23.6628 40.0387 23.101 39.2344 22.2375 39.0865C21.581 38.9742 20.8772 39.0451 20.2148 39.0451C18.8013 39.0451 17.3878 39.0392 15.9802 39.0392C13.9694 39.0392 11.9585 39.0333 9.9536 39.0333C8.84764 39.0333 7.72985 38.9978 6.62389 39.0274C5.60664 39.0688 4.84961 39.8258 4.8023 40.8371C4.77864 41.2985 5.22813 41.7479 5.68944 41.7243C6.18623 41.7006 6.55291 41.3339 6.57657 40.8371C6.57657 40.849 6.547 40.9732 6.57066 40.8726C6.59431 40.7543 6.55291 40.9081 6.547 40.8963C6.55883 40.8726 6.57066 40.849 6.58249 40.8253C6.56474 40.8431 6.547 40.8608 6.53517 40.8785C6.54109 40.8667 6.55292 40.8608 6.55883 40.849C6.59431 40.8135 6.59431 40.8135 6.55291 40.8371C6.55883 40.8608 6.51152 40.8549 6.5884 40.8135C6.5056 40.8549 6.55291 40.8253 6.55291 40.8253C6.55291 40.8135 6.60614 40.8017 6.51152 40.8135C6.54109 40.8076 6.57066 40.8076 6.60023 40.8076C6.73626 40.8076 6.87228 40.8076 7.00831 40.8076C7.46371 40.8076 7.9191 40.8076 8.3745 40.8076C8.6643 40.8076 8.96001 40.8076 9.24981 40.8076C11.0182 40.8076 12.7865 40.8135 14.549 40.8135C16.2641 40.8135 17.9733 40.8194 19.6884 40.8194C20.0019 40.8194 20.3213 40.8194 20.6347 40.8194C21.0428 40.8194 21.4568 40.849 21.8649 40.8194C21.9181 40.8135 21.8057 40.8135 21.8116 40.8017C21.788 40.8667 21.9418 40.7484 21.859 40.8017C21.8353 40.8135 21.8294 40.778 21.8944 40.8194C21.8708 40.8017 21.7939 40.7662 21.8708 40.7957C21.9891 40.8431 21.8176 40.7721 21.859 40.7603C21.8708 40.7839 21.8885 40.8017 21.9004 40.8253C21.8944 40.8017 21.8826 40.778 21.8767 40.7543C21.8826 40.7543 21.9181 40.9022 21.9004 40.7543C21.9122 40.8194 21.9063 40.8904 21.9063 40.9554C21.9063 42.5937 21.9004 44.2378 21.9004 45.8761C21.9004 45.9293 21.9004 45.9766 21.9004 46.0298C21.9004 46.0003 21.9477 45.9175 21.9063 45.9944C21.853 46.0949 21.9418 45.9766 21.9299 45.9707C21.924 45.9825 21.9181 45.9944 21.9122 46.0062C21.8826 46.0476 21.8885 46.0535 21.9181 46.0121C21.9122 45.9884 21.9536 45.9884 21.8885 46.0417C21.9181 46.018 22.0305 45.9648 21.8826 46.0417C21.9358 46.0121 21.9477 45.9884 21.9181 46.0298C21.8944 46.0653 21.8885 46.0476 21.9595 46.0417L21.8767 46.0476C21.8057 46.0476 21.7288 46.0476 21.6579 46.0476C21.1552 46.0476 20.6584 46.0476 20.1557 46.0476C18.3222 46.0476 16.4829 46.0417 14.6495 46.0417C12.7215 46.0417 10.7993 46.0358 8.87129 46.0358C8.27396 46.0358 7.67662 46.0358 7.07928 46.0358C6.94325 46.0358 6.7954 46.0239 6.65937 46.0358C6.63571 46.0358 6.61797 46.0358 6.59431 46.0358C6.62389 46.0358 6.70669 46.0831 6.6298 46.0417C6.52926 45.9884 6.64754 46.0772 6.65346 46.0653C6.64163 46.0594 6.6298 46.0535 6.61797 46.0476C6.56474 46.018 6.57066 46.0239 6.63571 46.0772C6.57657 46.1126 6.61797 45.953 6.60023 46.0535C6.59431 46.089 6.60614 46.0772 6.57657 46.018C6.61797 46.1008 6.5884 46.0535 6.5884 46.0535C6.57657 46.0003 6.57066 46.0003 6.57657 46.0535C6.57657 46.1067 6.57657 46.1067 6.57657 46.0535C6.57066 44.4862 6.57657 42.913 6.58249 41.3458C6.58249 41.1683 6.58249 40.9968 6.58249 40.8194C6.58249 40.3581 6.1744 39.9086 5.69535 39.9323C5.21038 39.9678 4.8023 40.3404 4.8023 40.8371Z" fill="url(#paint6_linear)"/>
<defs>
<linearGradient id="paint0_linear" x1="46.1419" y1="22.1938" x2="38.2463" y2="22.913" gradientUnits="userSpaceOnUse">
<stop stop-color="#E4B6B3"/>
<stop offset="1" stop-color="#98B1CF"/>
</linearGradient>
<linearGradient id="paint1_linear" x1="50.0001" y1="11.1201" x2="26.0723" y2="13.4245" gradientUnits="userSpaceOnUse">
<stop stop-color="#E4B6B3"/>
<stop offset="1" stop-color="#98B1CF"/>
</linearGradient>
<linearGradient id="paint2_linear" x1="45.2145" y1="39.0425" x2="25.4357" y2="44.7517" gradientUnits="userSpaceOnUse">
<stop stop-color="#E4B6B3"/>
<stop offset="1" stop-color="#98B1CF"/>
</linearGradient>
<linearGradient id="paint3_linear" x1="39.8272" y1="1.42724e-06" x2="6.99883" y2="5.0778" gradientUnits="userSpaceOnUse">
<stop stop-color="#E4B6B3"/>
<stop offset="1" stop-color="#98B1CF"/>
</linearGradient>
<linearGradient id="paint4_linear" x1="10.889" y1="22.1919" x2="2.98416" y2="22.9126" gradientUnits="userSpaceOnUse">
<stop stop-color="#E4B6B3"/>
<stop offset="1" stop-color="#98B1CF"/>
</linearGradient>
<linearGradient id="paint5_linear" x1="21.3078" y1="11.0967" x2="-2.6426" y2="13.4032" gradientUnits="userSpaceOnUse">
<stop stop-color="#E4B6B3"/>
<stop offset="1" stop-color="#98B1CF"/>
</linearGradient>
<linearGradient id="paint6_linear" x1="23.6809" y1="39.0156" x2="3.8975" y2="44.7117" gradientUnits="userSpaceOnUse">
<stop stop-color="#E4B6B3"/>
<stop offset="1" stop-color="#98B1CF"/>
</linearGradient>
</defs>
</svg>
