<svg width="41" height="53" viewBox="0 0 41 53" fill="none" xmlns="http://www.w3.org/2000/svg">
<path d="M31.1554 3.7911e-05C31.0902 -0.000311307 31.0251 0.00617722 30.9613 0.0194104C30.7982 0.0538935 30.6473 0.131518 30.5244 0.244185C30.4014 0.356852 30.311 0.500433 30.2625 0.659955C29.6641 2.47802 28.4816 3.1477 26.5745 3.43565C24.6675 3.7236 22.127 3.44981 19.4315 3.08626C16.7359 2.72268 13.8888 2.27207 11.2597 2.36807C8.63058 2.46408 6.12415 3.12163 4.4078 5.06612C4.32623 5.15789 4.26354 5.26483 4.22329 5.38082C4.18305 5.49682 4.16605 5.61959 4.17326 5.74215C4.18047 5.86472 4.21175 5.98467 4.26531 6.09514C4.31888 6.20562 4.39368 6.30447 4.48544 6.38603C4.57721 6.4676 4.68414 6.5303 4.80013 6.57055C4.91613 6.61079 5.03891 6.6278 5.16148 6.62059C5.28404 6.61338 5.40399 6.58211 5.51446 6.52854C5.62494 6.47498 5.72378 6.40016 5.80535 6.30839C7.06643 4.87968 8.94874 4.31799 11.3179 4.23148C13.6871 4.14496 16.4642 4.56405 19.1791 4.93025C21.8941 5.29645 24.5586 5.62799 26.8657 5.27964C29.1728 4.93129 31.2182 3.70497 32.0289 1.24227C32.0784 1.10213 32.0937 0.952173 32.0734 0.804927C32.0532 0.65768 31.998 0.517413 31.9125 0.395829C31.8271 0.274245 31.7137 0.174897 31.582 0.106037C31.4503 0.0371774 31.304 0.000809243 31.1554 0V3.7911e-05ZM31.0583 6.52195C30.8777 6.53962 30.7062 6.60965 30.5648 6.72344C30.4234 6.83723 30.3184 6.98982 30.2625 7.16249C29.657 8.98246 28.4778 9.65032 26.5745 9.93818C24.6713 10.226 22.1211 9.95234 19.4315 9.58879C16.7418 9.22522 13.9088 8.79402 11.2791 8.89002C8.64943 8.98602 6.13947 9.64716 4.4078 11.5881C4.31505 11.6777 4.24189 11.7855 4.19297 11.9048C4.14405 12.0241 4.12043 12.1523 4.1236 12.2812C4.12677 12.4101 4.15666 12.537 4.21139 12.6537C4.26611 12.7705 4.34448 12.8746 4.44152 12.9595C4.53857 13.0445 4.65218 13.1083 4.77518 13.147C4.89817 13.1858 5.02787 13.1986 5.15606 13.1846C5.28426 13.1706 5.40816 13.1302 5.51992 13.0659C5.63168 13.0016 5.72888 12.9148 5.80535 12.8109C7.08322 11.3786 8.98685 10.8399 11.3567 10.7534C13.7266 10.6669 16.4701 11.0666 19.1791 11.4328C21.8882 11.799 24.5426 12.1306 26.8463 11.7822C29.15 11.4337 31.2101 10.225 32.0289 7.76421C32.0821 7.61607 32.097 7.45686 32.072 7.30143C32.0471 7.146 31.9832 6.9994 31.8863 6.87535C31.7894 6.7513 31.6626 6.65385 31.5178 6.59204C31.373 6.53024 31.215 6.50612 31.0583 6.52195ZM0.875102 15.4119C0.645192 15.436 0.432447 15.5447 0.2782 15.7169C0.123953 15.8891 0.0392167 16.1125 0.040453 16.3436V22.0115C-0.0134843 22.1886 -0.0134843 22.3778 0.040453 22.555V27.9316C-0.0134843 28.1088 -0.0134843 28.298 0.040453 28.4751L0.00163214 51.8841C0.00165685 52.1312 0.0998251 52.3682 0.274548 52.5429C0.44927 52.7176 0.686238 52.8158 0.933333 52.8158L39.8319 52.7773C39.9598 52.8045 40.0921 52.8045 40.2201 52.7773C40.346 52.7502 40.465 52.6974 40.5694 52.622C40.7353 52.5101 40.8608 52.3477 40.9272 52.1589C40.9936 51.9701 40.9975 51.765 40.9382 51.5738V25.2145C40.9363 25.0519 40.8918 24.8926 40.8092 24.7526C40.7267 24.6125 40.6089 24.4964 40.4676 24.4159C40.3263 24.3355 40.1664 24.2934 40.0038 24.2939C39.8412 24.2944 39.6815 24.3374 39.5407 24.4187L25.5652 32.474V25.2145C25.5632 25.0519 25.5187 24.8926 25.4362 24.7526C25.3536 24.6125 25.2358 24.4964 25.0945 24.4159C24.9532 24.3355 24.7933 24.2934 24.6307 24.2939C24.4681 24.2944 24.3085 24.3374 24.1676 24.4187L10.1921 32.474V28.359C10.2167 28.2373 10.2167 28.1119 10.1921 27.9902V22.4388C10.2167 22.3171 10.2167 22.1917 10.1921 22.07V16.3439C10.1921 16.0968 10.0939 15.8599 9.9192 15.6852C9.74447 15.5104 9.50751 15.4123 9.26041 15.4122H0.972154C0.939825 15.4105 0.907431 15.4105 0.875102 15.4122V15.4119ZM1.90386 17.2753H8.32871V21.3321H1.90386V17.2753ZM1.90386 23.1955H8.32871V27.2523H1.90386V23.1955ZM23.7018 26.8253V34.1041C23.7037 34.2667 23.7482 34.426 23.8307 34.5661C23.9133 34.7062 24.0311 34.8222 24.1724 34.9027C24.3137 34.9832 24.4736 35.0252 24.6362 35.0248C24.7988 35.0243 24.9585 34.9813 25.0993 34.9L39.0748 26.8446V50.9136L1.86503 50.9521L1.90386 29.1154H8.32871V34.1038C8.33247 34.2636 8.37727 34.4197 8.4588 34.5572C8.54033 34.6947 8.65586 34.8089 8.79427 34.8888C8.93267 34.9687 9.08932 35.0117 9.24914 35.0136C9.40895 35.0155 9.56658 34.9763 9.70685 34.8997L23.7018 26.825V26.8253ZM5.7083 37.6563V41.2084H10.425V37.6563H5.7083ZM13.9771 37.6563V41.2084H18.7133V37.6563H13.9771ZM22.2654 37.6563V41.2084H27.0016V37.6563H22.2654ZM30.5537 37.6563V41.2084H35.2704V37.6563H30.5537ZM5.7083 44.7605V48.3126H10.425V44.7605H5.7083ZM13.9771 44.7605V48.3126H18.7133V44.7605H13.9771ZM22.2654 44.7605V48.3126H27.0016V44.7605H22.2654ZM30.5537 44.7605V48.3126H35.2704V44.7605H30.5537Z" fill="url(#paint0_linear)"/>
<defs>
<linearGradient id="paint0_linear" x1="40.98" y1="2.92692e-06" x2="-5.00909" y2="4.7974" gradientUnits="userSpaceOnUse">
<stop stop-color="#E4B6B3"/>
<stop offset="1" stop-color="#98B1CF"/>
</linearGradient>
</defs>
</svg>
