<svg width="47" height="49" viewBox="0 0 47 49" fill="none" xmlns="http://www.w3.org/2000/svg">
<path d="M14.4112 0.810209C14.3076 1.24891 14.5194 1.74303 14.909 1.97179C20.939 5.67015 25.7264 9.2466 29.9184 13.2039L0.300351 41.8249C-0.100117 42.2199 -0.100117 42.9443 0.300351 43.3392L2.97165 46.0016C3.36786 46.4007 4.09475 46.4007 4.49095 46.0016L33.1907 16.4986C37.169 20.7673 40.716 25.5752 44.4937 31.4581C44.7652 31.8707 45.347 32.0471 45.803 31.8551C46.2591 31.663 46.5378 31.1244 46.4304 30.6427C44.9519 24.2572 42.9191 18.0778 37.1142 12.4551L38.1493 11.3901C38.5355 10.9922 38.5275 10.2819 38.1327 9.89253L36.5299 8.29504C36.3298 8.09342 36.0463 7.9767 35.7619 7.97894H35.6617C35.4247 8.00457 35.1973 8.11175 35.0273 8.27839L33.9087 9.36003C28.3874 3.97752 22.6281 1.50597 15.6937 0.0248833C15.0774 -0.112699 14.5875 0.344001 14.4112 0.810209H14.4112ZM22.2217 4.25155C30.9388 8.07601 39.2151 15.7348 42.557 24.9684C36.6657 16.6404 30.6751 10.226 22.2217 4.25155ZM31.4711 14.7015C31.5542 14.7848 31.6388 14.8674 31.7215 14.9511L3.70626 43.7385L2.57096 42.607L31.4711 14.7015ZM26.3455 27.0984L24.4255 29.9772L21.5539 30.9256C21.3965 30.9803 21.2522 31.0723 21.1365 31.1919L19.5337 32.7894C19.3354 32.9848 19.2187 33.2601 19.2165 33.5381V36.1173C18.9322 36.3221 18.6532 36.5237 18.3483 36.7331H16.0109C15.7983 36.7327 15.586 36.7973 15.4099 36.916L13.8071 37.981C13.5201 38.1757 13.3392 38.517 13.3396 38.863V40.5602L12.5883 41.3091C12.39 41.5045 12.2733 41.7799 12.2711 42.0579V44.1878C12.2709 44.6559 12.6178 45.1025 13.0725 45.2195C15.0469 45.7115 17.2575 46.8503 19.7507 46.8503C21.0968 46.8599 22.2675 46.8214 23.4906 46.6672C23.5401 47.2745 23.9616 47.8585 24.4756 47.9152C31.5547 48.4579 34.8395 47.3828 40.5869 47.3828C40.7353 47.3881 40.8842 47.3566 41.021 47.2995L45.8293 45.1696C46.1419 45.0327 46.3798 44.7378 46.447 44.4041L46.9813 41.7417C47.0382 41.4477 46.9634 41.1309 46.781 40.893L45.3952 39.046V37.2656C45.3926 37.0591 45.3277 36.8541 45.2116 36.6831L44.1431 35.0857C43.9929 34.8515 43.7473 34.6803 43.4752 34.6198L41.0544 34.1372L37.014 30.6095C36.4488 30.2076 35.9977 30.3848 35.4613 30.6426C33.1353 28.9749 30.3222 28.3916 27.8314 26.7988C27.1749 26.4814 26.8597 26.6361 26.3455 27.0985V27.0984ZM27.6144 29.0453C29.5609 30.0767 31.2414 30.7432 33.0739 31.7077C31.8399 32.2196 30.4671 32.7215 28.9667 33.2386C27.8942 32.7323 26.7597 32.1168 25.9281 31.5413C26.4932 30.7212 27.0546 29.8764 27.6144 29.0453ZM24.1083 32.3401C25.0491 32.904 26.1897 33.4149 27.6812 33.7378C27.4955 33.867 27.3529 34.0565 27.2805 34.2703C27.1905 34.5394 27.0846 34.8296 26.9633 35.119C26.5006 35.072 26.0552 34.91 25.494 34.6863C24.3557 34.3435 23.5831 33.9276 22.5556 34.1538C22.1141 34.3299 21.7226 34.5191 21.3535 34.7196V33.9708L22.4554 32.8892L24.1083 32.3401ZM36.1292 32.6562L38.3664 34.6031C37.0752 35.6091 34.8269 36.8162 32.573 37.2656C35.6467 37.2656 37.9884 36.5489 39.6185 35.7013C39.8254 35.9402 40.1271 36.0718 40.3698 36.184L42.6237 36.6332L43.2582 37.5817V39.3955C43.2571 39.6276 43.3345 39.8594 43.4752 40.0444L44.7775 41.7916L44.4436 43.4557L40.3531 45.2694C38.7088 45.278 37.2845 45.3524 35.9121 45.4525C36.7942 44.7938 38.2538 44.3334 41.6554 43.6554C39.7233 43.8463 37.9156 43.6553 35.2443 44.1878L33.8085 45.6188C31.4162 45.8091 29.0142 45.9783 25.8613 45.8185C26.4645 43.7214 26.6029 41.2888 26.2453 39.3955C26.9459 38.9527 27.5392 38.393 27.9817 37.7315C28.476 36.9924 28.7887 36.2058 29.0669 35.4684C31.8129 34.5413 34.1538 33.5981 36.1292 32.6562ZM23.14 36.2505C24.1439 36.3815 24.9318 36.7766 25.8113 37.0659C25.4614 37.4605 25.0916 37.7376 24.7594 37.848C24.2341 38.0147 23.9031 38.6352 24.0582 39.1625C24.484 40.9646 24.4045 42.7 24.0248 44.3209C22.6207 44.7527 21.1623 44.7199 19.7508 44.7203C18.1894 44.7203 16.3742 43.98 14.4082 43.4057V42.4905L15.1595 41.7417C17.1952 41.7203 19.5007 40.2688 20.8193 39.3955C18.7871 40.2056 17.07 40.3941 15.4767 40.1443V39.4287L16.3449 38.863H18.6822C18.8949 38.8634 19.1072 38.7987 19.2833 38.6799C20.8658 37.6284 21.7586 36.85 23.14 36.2505H23.14Z" fill="url(#paint0_linear)"/>
<defs>
<linearGradient id="paint0_linear" x1="47" y1="2.66382e-06" x2="-5.41315" y2="6.89006" gradientUnits="userSpaceOnUse">
<stop stop-color="#E4B6B3"/>
<stop offset="1" stop-color="#98B1CF"/>
</linearGradient>
</defs>
</svg>
