<svg width="51" height="52" viewBox="0 0 51 52" fill="none" xmlns="http://www.w3.org/2000/svg">
<path d="M48.8828 21.6046C48.6676 19.9365 47.2147 18.8065 45.5466 18.968C43.8785 19.1832 42.6947 20.6361 42.8561 22.2504L43.6095 30.3757L40.7037 35.1109L39.7351 35.0571L41.2418 31.398C41.8337 29.9452 41.2418 28.2771 39.8428 27.5775C38.4437 26.878 36.7756 27.4161 35.9684 28.7076L31.2332 36.51C30.8565 37.1019 30.6413 37.8552 30.6951 38.6086L31.556 50.3391C31.6098 50.8772 32.0403 51.3615 32.6322 51.3615H41.5109C42.1028 51.3615 42.5871 50.8772 42.5871 50.2853C42.5871 50.2315 42.5871 50.1777 42.5871 50.1239L41.8875 44.5277L49.3671 34.8957C49.9052 34.1962 50.1743 33.2814 50.0666 32.3666L48.8828 21.6046ZM47.699 33.5504L39.8966 43.5591C39.7351 43.7743 39.6275 44.0972 39.6813 44.3662L40.3809 49.2629H33.7084L32.9551 38.5548C32.9551 38.2857 33.0089 37.9629 33.1703 37.7476L37.8518 29.8914C38.067 29.5147 38.5513 29.4071 38.928 29.5685C39.3047 29.7838 39.4661 30.2142 39.3047 30.6447L37.1523 35.7028C36.937 36.2409 37.2061 36.8867 37.7442 37.1019C37.8518 37.1557 37.9594 37.1557 38.1208 37.2095L41.2418 37.3709C41.6185 37.3709 41.9952 37.1557 42.2104 36.8328L45.6542 31.2904C45.7619 31.0752 45.8157 30.8599 45.8157 30.5909L45.0085 22.1427C44.9547 21.6585 45.3314 21.228 45.8157 21.1742C46.2461 21.1204 46.6766 21.4432 46.7304 21.9275L47.9142 32.6895C47.9681 32.9585 47.9142 33.2814 47.699 33.5504Z" fill="url(#paint0_linear)"/>
<path d="M8.20249 44.5277L7.39534 50.1778C7.34153 50.7697 7.7182 51.3078 8.31011 51.4154C8.36392 51.4154 8.41773 51.4154 8.47154 51.4154H17.404C17.9959 51.4154 18.4264 50.9849 18.4802 50.393L19.2873 38.6086C19.3411 37.9091 19.1259 37.2096 18.7492 36.5639L14.0678 28.7076C13.2606 27.3624 11.5925 26.8781 10.1935 27.5776C8.7944 28.2771 8.14868 29.9452 8.7944 31.3981L10.3549 35.0572L9.38631 35.111L6.48057 30.3757L7.23391 22.2504C7.39534 20.5823 6.15772 19.1294 4.48961 18.968C2.87531 18.8066 1.42244 19.9904 1.2072 21.6047L0.0233852 32.3667C-0.0842347 33.2815 0.184815 34.1424 0.722914 34.8957L8.20249 44.5277ZM2.12197 32.5819L3.30579 21.8199C3.3596 21.3356 3.79008 21.0128 4.22056 21.0666C4.70485 21.1204 5.08152 21.5509 5.02771 22.0352L4.27437 30.5371C4.27437 30.7524 4.32818 31.0214 4.4358 31.1829L7.82582 36.7791C8.04106 37.102 8.41773 37.3172 8.7944 37.3172L11.9154 37.1558C12.5073 37.102 12.9916 36.6177 12.9378 36.0258C12.9378 35.9181 12.884 35.7567 12.8301 35.6491L10.6777 30.591C10.5163 30.1605 10.6777 29.73 11.0544 29.5148C11.4311 29.3533 11.9154 29.4609 12.1306 29.8376L16.9735 37.6939C17.1349 37.9091 17.1887 38.1782 17.1887 38.4472L16.4354 49.2092H9.70917L10.4087 44.3125C10.4625 44.0434 10.3549 43.7206 10.1935 43.5053L2.39102 33.5505C2.17578 33.2815 2.06816 32.9586 2.12197 32.5819Z" fill="url(#paint1_linear)"/>
<path d="M36.0761 24.5642V11.4346L38.4437 13.3718C38.928 13.6946 39.6275 13.5332 39.9504 13.0489C40.2194 12.6184 40.1656 12.0803 39.8428 11.7037L25.7446 0.242145C25.3679 -0.0807149 24.776 -0.0807149 24.3993 0.242145L10.3011 11.7037C9.81683 12.0803 9.70921 12.726 10.0859 13.2103C10.4625 13.6946 11.1083 13.8022 11.5926 13.4256C11.6464 13.4256 11.6464 13.3718 11.7002 13.3718L14.0678 11.4346V24.5642C14.0678 25.1561 14.5521 25.6404 15.144 25.6404H35.0537C35.5918 25.6404 36.0761 25.1561 36.0761 24.5642ZM26.9284 23.488H23.1617V16.977H26.9284V23.488ZM29.0808 23.488V15.9008C29.0808 15.3089 28.5965 14.8246 28.0046 14.8246H22.0855C21.4936 14.8246 21.0093 15.3089 21.0093 15.9008V23.5418H16.1664V9.65888L25.045 2.44835L33.9237 9.65888V23.488H29.0808Z" fill="url(#paint2_linear)"/>
<defs>
<linearGradient id="paint0_linear" x1="50.09" y1="18.9526" x2="28.2199" y2="20.713" gradientUnits="userSpaceOnUse">
<stop stop-color="#E4B6B3"/>
<stop offset="1" stop-color="#98B1CF"/>
</linearGradient>
<linearGradient id="paint1_linear" x1="19.2955" y1="18.9533" x2="-2.45527" y2="20.6915" gradientUnits="userSpaceOnUse">
<stop stop-color="#E4B6B3"/>
<stop offset="1" stop-color="#98B1CF"/>
</linearGradient>
<linearGradient id="paint2_linear" x1="40.1227" y1="1.42093e-06" x2="6.63391" y2="5.31413" gradientUnits="userSpaceOnUse">
<stop stop-color="#E4B6B3"/>
<stop offset="1" stop-color="#98B1CF"/>
</linearGradient>
</defs>
</svg>
