<svg width="54" height="40" viewBox="0 0 54 40" fill="none" xmlns="http://www.w3.org/2000/svg">
<path d="M20.6234 0.00159829H7.29574C6.99103 0.00159829 6.69879 0.122646 6.48332 0.338114C6.26786 0.553581 6.14681 0.845817 6.14681 1.15053V12.4101H5.57234C5.26762 12.4101 4.97539 12.5312 4.75992 12.7466C4.54445 12.9621 4.4234 13.2543 4.4234 13.559V19.7633H1.14894C0.844219 19.7633 0.551983 19.8843 0.336516 20.0998C0.121048 20.3153 0 20.6075 0 20.9122V31.3676C0 32.2817 0.363145 33.1584 1.00955 33.8048C1.65595 34.4512 2.53266 34.8144 3.44681 34.8144H5.28511C5.54418 36.0703 6.22855 37.1985 7.22275 38.0086C8.21695 38.8186 9.46013 39.261 10.7426 39.261C12.025 39.261 13.2682 38.8186 14.2624 38.0086C15.2566 37.1985 15.9409 36.0703 16.2 34.8144H37.7425C38.0016 36.0703 38.686 37.1985 39.6802 38.0086C40.6744 38.8186 41.9176 39.261 43.2 39.261C44.4824 39.261 45.7256 38.8186 46.7198 38.0086C47.714 37.1985 48.3984 36.0703 48.6574 34.8144H50.5532C51.4673 34.8144 52.344 34.4512 52.9905 33.8048C53.6369 33.1584 54 32.2817 54 31.3676V23.2101C53.9956 22.4392 53.7329 21.692 53.2538 21.088C52.7748 20.484 52.1071 20.0581 51.3574 19.8782L46.9915 10.2846C46.6125 9.49368 46.0178 8.82597 45.2758 8.35843C44.5339 7.89089 43.6749 7.64254 42.7979 7.64202H34.3532C34.0485 7.64202 33.7562 7.76307 33.5408 7.97854C33.3253 8.19401 33.2043 8.48624 33.2043 8.79096V19.7633H29.5851V7.75692C29.5851 7.4522 29.4641 7.15996 29.2486 6.9445C29.0331 6.72903 28.7409 6.60798 28.4362 6.60798H21.7723V1.15053C21.7806 0.997474 21.7566 0.844384 21.7018 0.701232C21.647 0.55808 21.5626 0.428079 21.4543 0.31969C21.3459 0.211302 21.2159 0.126958 21.0727 0.0721522C20.9296 0.0173461 20.7765 -0.00669376 20.6234 0.00159829ZM8.44468 2.29947H19.4745V6.60798H14.8787C14.7257 6.59969 14.5726 6.62373 14.4294 6.67853C14.2863 6.73334 14.1563 6.81768 14.0479 6.92607C13.9395 7.03446 13.8551 7.16446 13.8003 7.30761C13.7455 7.45077 13.7215 7.60386 13.7298 7.75692V12.4101H8.44468V2.29947ZM6.72128 14.708H13.7298V19.7633H6.72128V14.708ZM10.7426 36.9973C9.88935 36.9973 9.07108 36.6584 8.46778 36.0551C7.86447 35.4518 7.52553 34.6335 7.52553 33.7803C7.5254 32.9217 7.86249 32.0975 8.4642 31.485C9.06591 30.8725 9.8841 30.5209 10.7426 30.5058C11.6064 30.5206 12.4307 30.8703 13.0416 31.4813C13.6525 32.0922 14.0023 32.9165 14.017 33.7803C14.002 34.6388 13.6503 35.457 13.0379 36.0587C12.4254 36.6604 11.6011 36.9975 10.7426 36.9973ZM43.2 36.9973C42.3414 36.9975 41.5171 36.6604 40.9047 36.0587C40.2922 35.457 39.9406 34.6388 39.9255 33.7803C39.9255 32.9119 40.2705 32.079 40.8846 31.4649C41.4987 30.8508 42.3316 30.5058 43.2 30.5058C44.0684 30.5058 44.9013 30.8508 45.5154 31.4649C46.1295 32.079 46.4745 32.9119 46.4745 33.7803C46.4594 34.6388 46.1078 35.457 45.4953 36.0587C44.8829 36.6604 44.0586 36.9975 43.2 36.9973ZM51.7021 31.3676C51.7021 31.6723 51.5811 31.9645 51.3656 32.18C51.1501 32.3954 50.8579 32.5165 50.5532 32.5165H48.6C48.3425 31.2747 47.6648 30.1596 46.6813 29.3591C45.6977 28.5585 44.4682 28.1214 43.2 28.1214C41.9318 28.1214 40.7023 28.5585 39.7188 29.3591C38.7352 30.1596 38.0575 31.2747 37.8 32.5165H16.1426C15.885 31.2747 15.2074 30.1596 14.2238 29.3591C13.2402 28.5585 12.0108 28.1214 10.7426 28.1214C9.47435 28.1214 8.2449 28.5585 7.2613 29.3591C6.2777 30.1596 5.60007 31.2747 5.34255 32.5165H3.44681C3.14209 32.5165 2.84986 32.3954 2.63439 32.18C2.41892 31.9645 2.29787 31.6723 2.29787 31.3676V22.0612H50.5532C50.8579 22.0612 51.1501 22.1822 51.3656 22.3977C51.5811 22.6132 51.7021 22.9054 51.7021 23.2101V31.3676ZM35.5021 9.93989H42.7979C43.2322 9.94215 43.657 10.0675 44.0231 10.3013C44.3891 10.5352 44.6814 10.868 44.866 11.2612L48.7723 19.7633H35.5021V9.93989ZM27.2872 19.7633H16.0277V8.90585H27.2872V19.7633Z" fill="url(#paint0_linear)"/>
<defs>
<linearGradient id="paint0_linear" x1="54" y1="2.17575e-06" x2="-5.23453" y2="10.9534" gradientUnits="userSpaceOnUse">
<stop stop-color="#E4B6B3"/>
<stop offset="1" stop-color="#98B1CF"/>
</linearGradient>
</defs>
</svg>
