<svg width="50" height="39" viewBox="0 0 50 39" fill="none" xmlns="http://www.w3.org/2000/svg">
<path d="M4.06592 37.2372C4.06592 37.8815 4.58824 38.4038 5.23256 38.4038C5.87689 38.4038 6.39921 37.8815 6.39921 37.2372V13.7429L4.06592 14.8222V37.2372Z" fill="url(#paint0_linear)"/>
<path d="M43.6008 37.237C43.6008 37.8813 44.1232 38.4037 44.7675 38.4037C45.4118 38.4037 45.9341 37.8813 45.9341 37.237V14.8217L43.6008 13.7424V37.237Z" fill="url(#paint1_linear)"/>
<path d="M48.1652 14.3829C47.9076 14.3829 47.6459 14.3282 47.3966 14.2129L25 3.85376L2.60341 14.2129C1.68476 14.6379 0.595111 14.2379 0.169785 13.3186C-0.255207 12.3996 0.145119 11.31 1.0641 10.885L24.2303 0.169497C24.7187 -0.056499 25.2813 -0.056499 25.7697 0.169497L48.9359 10.885C49.8549 11.31 50.2552 12.3996 49.8302 13.3186C49.5206 13.9886 48.8576 14.3829 48.1652 14.3829Z" fill="url(#paint2_linear)"/>
<path d="M37.3441 23.7263H32.3385V12.5492C32.3385 11.9049 31.8162 11.3826 31.1719 11.3826H18.8278C18.1835 11.3826 17.6611 11.9049 17.6611 12.5492V23.7267H12.6559C12.0116 23.7267 11.4893 24.249 11.4893 24.8933V37.2374C11.4893 37.8817 12.0116 38.4041 12.6559 38.4041H25H37.3441C37.9884 38.4041 38.5108 37.8817 38.5108 37.2374V24.893C38.5108 24.249 37.9884 23.7263 37.3441 23.7263ZM19.9944 13.7159H22.8101V15.6915C22.8101 16.0598 23.1084 16.3581 23.4767 16.3581H26.5233C26.8916 16.3581 27.19 16.0598 27.19 15.6915V13.7159H30.0053V23.7267H25H19.9944V13.7159ZM13.8225 26.0596H16.6382V28.0353C16.6382 28.4036 16.9365 28.7019 17.3048 28.7019H20.3514C20.7198 28.7019 21.0181 28.4036 21.0181 28.0353V26.0596H23.8334V36.0704H13.8225V26.0596ZM36.1775 36.0704H26.1667V26.0596H28.9819V28.0353C28.9819 28.4036 29.2803 28.7019 29.6486 28.7019H32.6952C33.0635 28.7019 33.3619 28.4036 33.3619 28.0353V26.0596H36.1775V36.0704Z" fill="url(#paint3_linear)"/>
<defs>
<linearGradient id="paint0_linear" x1="6.39921" y1="13.7429" x2="3.75265" y2="13.7766" gradientUnits="userSpaceOnUse">
<stop stop-color="#E4B6B3"/>
<stop offset="1" stop-color="#98B1CF"/>
</linearGradient>
<linearGradient id="paint1_linear" x1="45.9341" y1="13.7424" x2="43.2876" y2="13.7761" gradientUnits="userSpaceOnUse">
<stop stop-color="#E4B6B3"/>
<stop offset="1" stop-color="#98B1CF"/>
</linearGradient>
<linearGradient id="paint2_linear" x1="50" y1="7.97065e-07" x2="3.44685" y2="21.7578" gradientUnits="userSpaceOnUse">
<stop stop-color="#E4B6B3"/>
<stop offset="1" stop-color="#98B1CF"/>
</linearGradient>
<linearGradient id="paint3_linear" x1="38.5108" y1="11.3826" x2="8.40062" y2="15.4307" gradientUnits="userSpaceOnUse">
<stop stop-color="#E4B6B3"/>
<stop offset="1" stop-color="#98B1CF"/>
</linearGradient>
</defs>
</svg>
